<svg width="334" height="27" viewBox="0 0 334 27" fill="none" xmlns="http://www.w3.org/2000/svg">
<path fill-rule="evenodd" clip-rule="evenodd" d="M220 27V0H114V27H115V1H219V27H220Z" fill="black"/>
<path d="M189.791 22V21.52L191.999 21.328H192.351L194.575 21.52V22H189.791ZM191.439 22C191.471 20.24 191.471 18.432 191.471 16.624V15.744C191.471 13.936 191.471 12.144 191.439 10.352H192.911C192.863 12.144 192.863 13.92 192.863 16.144V16.48C192.863 18.432 192.863 20.224 192.911 22H191.439ZM198.783 22.16C197.711 22.16 197.279 21.856 197.103 21.088L196.303 18.368C195.935 17.04 195.503 16.544 194.095 16.544H192.191V16.048H194.511C196.303 16.048 197.343 14.864 197.343 13.376C197.343 11.824 196.431 10.896 194.479 10.896H192.191V10.352H194.687C197.263 10.352 198.703 11.44 198.703 13.36C198.703 14.96 197.503 16.256 195.055 16.416V16.272C196.783 16.4 197.311 17.024 197.695 18.448L198.703 21.728L198.047 21.392L200.159 21.52V22C199.791 22.096 199.359 22.16 198.783 22.16ZM189.791 10.848V10.352H192.191V11.024H191.999L189.791 10.848Z" fill="#5B5B5B"/>
<path d="M177.434 22V21.52L179.642 21.328H179.834V22H177.434ZM179.082 22C179.114 20.24 179.114 18.432 179.114 16.624V15.744C179.114 13.936 179.114 12.144 179.082 10.352H180.57C180.538 12.128 180.538 13.936 180.538 15.936V16.288C180.538 18.432 180.538 20.224 180.57 22H179.082ZM179.834 22V21.456H185.818L185.114 21.872L185.642 19.088H186.33L186.218 22H179.834ZM179.834 16.368V15.824H183.674V16.368H179.834ZM183.562 18L183.354 16.224V15.888L183.562 14.16H184.122V18H183.562ZM177.434 10.848V10.352H179.834V11.024H179.642L177.434 10.848ZM185.354 13.232L184.826 10.48L185.546 10.928H179.834V10.352H185.93L186.042 13.232H185.354Z" fill="#5B5B5B"/>
<path d="M166.839 22V21.52L169.191 21.328H169.591L171.959 21.52V22H166.839ZM168.663 22C168.711 20.24 168.711 18.432 168.711 16.624V15.744C168.711 13.936 168.711 12.144 168.663 10.352H170.151C170.119 12.128 170.119 13.936 170.119 15.744V16.624C170.119 18.432 170.119 20.224 170.151 22H168.663ZM164.487 13.392L164.615 10.352H174.199L174.343 13.392H173.655L173.079 10.352L173.735 10.928H165.063L165.751 10.352L165.159 13.392H164.487Z" fill="#5B5B5B"/>
<path d="M154.078 22L154.094 21.52L156.286 21.328H156.478V22H154.078ZM155.726 22C155.758 20.24 155.758 18.432 155.758 16.752V15.744C155.758 13.936 155.758 12.128 155.726 10.352H157.214C157.182 12.144 157.182 13.936 157.182 15.968V16.896C157.182 18.432 157.182 20.224 157.214 22H155.726ZM156.478 22V21.456H162.062L161.406 21.856L161.966 18.896H162.654L162.542 22H156.478ZM154.078 10.848V10.352H158.91V10.848L156.654 11.024H156.286L154.078 10.848Z" fill="#5B5B5B"/>
<path d="M145.674 22V21.52L147.882 21.328H148.234L150.458 21.52V22H145.674ZM147.322 22C147.354 20.24 147.354 18.432 147.354 16.624V15.744C147.354 13.936 147.354 12.144 147.322 10.352H148.81C148.778 12.128 148.778 13.936 148.778 15.744V16.624C148.778 18.432 148.778 20.224 148.81 22H147.322ZM145.674 10.848V10.352H150.458V10.848L148.234 11.024H147.882L145.674 10.848Z" fill="#5B5B5B"/>
<path d="M133.832 22V21.52L136.04 21.328H136.472L138.776 21.52V22H133.832ZM135.48 22C135.512 20.24 135.512 18.432 135.512 16.624V15.744C135.512 13.936 135.512 12.144 135.48 10.352H136.968C136.936 12.128 136.936 13.936 136.936 15.936V16.288C136.936 18.432 136.936 20.224 136.968 22H135.48ZM136.232 16.368V15.824H140.136V16.368H136.232ZM139.992 18.064L139.784 16.304V15.888L139.992 14.16H140.568V18.064H139.992ZM133.832 10.848V10.352H136.232V11.024H136.04L133.832 10.848ZM141.8 13.232L141.256 10.464L141.992 10.928H136.232V10.352H142.392L142.472 13.232H141.8Z" fill="#5B5B5B"/>
<path fill-rule="evenodd" clip-rule="evenodd" d="M114 27H0V26H114V27Z" fill="black"/>
<path fill-rule="evenodd" clip-rule="evenodd" d="M334 27H220V26H334V27Z" fill="black"/>
</svg>
