<svg width="106" height="27" viewBox="0 0 106 27" fill="none" xmlns="http://www.w3.org/2000/svg">
<g id="Frame 55">
<path id="Rectangle 53 (Stroke)" fill-rule="evenodd" clip-rule="evenodd" d="M106 27V0H0V27H1V1H105V27H106Z" fill="black"/>
<g id="FILTER">
<path id="Vector" d="M75.7914 22V21.52L77.9994 21.328H78.3514L80.5754 21.52V22H75.7914ZM77.4394 22C77.4714 20.24 77.4714 18.432 77.4714 16.624V15.744C77.4714 13.936 77.4714 12.144 77.4394 10.352H78.9114C78.8634 12.144 78.8634 13.92 78.8634 16.144V16.48C78.8634 18.432 78.8634 20.224 78.9114 22H77.4394ZM84.7834 22.16C83.7114 22.16 83.2794 21.856 83.1034 21.088L82.3034 18.368C81.9354 17.04 81.5034 16.544 80.0954 16.544H78.1914V16.048H80.5114C82.3034 16.048 83.3434 14.864 83.3434 13.376C83.3434 11.824 82.4314 10.896 80.4794 10.896H78.1914V10.352H80.6874C83.2634 10.352 84.7034 11.44 84.7034 13.36C84.7034 14.96 83.5034 16.256 81.0554 16.416V16.272C82.7834 16.4 83.3114 17.024 83.6954 18.448L84.7034 21.728L84.0474 21.392L86.1594 21.52V22C85.7914 22.096 85.3594 22.16 84.7834 22.16ZM75.7914 10.848V10.352H78.1914V11.024H77.9994L75.7914 10.848Z" fill="#5B5B5B"/>
<path id="Vector_2" d="M63.4338 22V21.52L65.6418 21.328H65.8338V22H63.4338ZM65.0818 22C65.1138 20.24 65.1138 18.432 65.1138 16.624V15.744C65.1138 13.936 65.1138 12.144 65.0818 10.352H66.5698C66.5378 12.128 66.5378 13.936 66.5378 15.936V16.288C66.5378 18.432 66.5378 20.224 66.5698 22H65.0818ZM65.8338 22V21.456H71.8178L71.1138 21.872L71.6418 19.088H72.3298L72.2178 22H65.8338ZM65.8338 16.368V15.824H69.6738V16.368H65.8338ZM69.5618 18L69.3538 16.224V15.888L69.5618 14.16H70.1218V18H69.5618ZM63.4338 10.848V10.352H65.8338V11.024H65.6418L63.4338 10.848ZM71.3538 13.232L70.8258 10.48L71.5458 10.928H65.8338V10.352H71.9298L72.0418 13.232H71.3538Z" fill="#5B5B5B"/>
<path id="Vector_3" d="M52.8391 22V21.52L55.1911 21.328H55.5911L57.9591 21.52V22H52.8391ZM54.6631 22C54.7111 20.24 54.7111 18.432 54.7111 16.624V15.744C54.7111 13.936 54.7111 12.144 54.6631 10.352H56.1511C56.1191 12.128 56.1191 13.936 56.1191 15.744V16.624C56.1191 18.432 56.1191 20.224 56.1511 22H54.6631ZM50.4871 13.392L50.6151 10.352H60.1991L60.3431 13.392H59.6551L59.0791 10.352L59.7351 10.928H51.0631L51.7511 10.352L51.1591 13.392H50.4871Z" fill="#5B5B5B"/>
<path id="Vector_4" d="M40.0782 22L40.0942 21.52L42.2862 21.328H42.4782V22H40.0782ZM41.7262 22C41.7582 20.24 41.7582 18.432 41.7582 16.752V15.744C41.7582 13.936 41.7582 12.128 41.7262 10.352H43.2142C43.1822 12.144 43.1822 13.936 43.1822 15.968V16.896C43.1822 18.432 43.1822 20.224 43.2142 22H41.7262ZM42.4782 22V21.456H48.0622L47.4062 21.856L47.9662 18.896H48.6542L48.5422 22H42.4782ZM40.0782 10.848V10.352H44.9102V10.848L42.6542 11.024H42.2862L40.0782 10.848Z" fill="#5B5B5B"/>
<path id="Vector_5" d="M31.6738 22V21.52L33.8818 21.328H34.2338L36.4578 21.52V22H31.6738ZM33.3218 22C33.3538 20.24 33.3538 18.432 33.3538 16.624V15.744C33.3538 13.936 33.3538 12.144 33.3218 10.352H34.8098C34.7778 12.128 34.7778 13.936 34.7778 15.744V16.624C34.7778 18.432 34.7778 20.224 34.8098 22H33.3218ZM31.6738 10.848V10.352H36.4578V10.848L34.2338 11.024H33.8818L31.6738 10.848Z" fill="#5B5B5B"/>
<path id="Vector_6" d="M19.832 22V21.52L22.04 21.328H22.472L24.776 21.52V22H19.832ZM21.48 22C21.512 20.24 21.512 18.432 21.512 16.624V15.744C21.512 13.936 21.512 12.144 21.48 10.352H22.968C22.936 12.128 22.936 13.936 22.936 15.936V16.288C22.936 18.432 22.936 20.224 22.968 22H21.48ZM22.232 16.368V15.824H26.136V16.368H22.232ZM25.992 18.064L25.784 16.304V15.888L25.992 14.16H26.568V18.064H25.992ZM19.832 10.848V10.352H22.232V11.024H22.04L19.832 10.848ZM27.8 13.232L27.256 10.464L27.992 10.928H22.232V10.352H28.392L28.472 13.232H27.8Z" fill="#5B5B5B"/>
</g>
</g>
</svg>
