<svg width="1201" height="58" viewBox="0 0 1201 58" fill="none" xmlns="http://www.w3.org/2000/svg">
<path d="M552.152 39V38.256L555.68 37.92H556.496L560.12 38.256V39H552.152ZM554.48 39C554.552 36.312 554.552 33.576 554.552 30.792V29.592C554.552 26.832 554.552 24.096 554.48 21.36H557.48C557.408 24.048 557.408 26.808 557.408 29.784V30.408C557.408 33.528 557.408 36.288 557.48 39H554.48ZM555.992 30.456V29.616H561.896V30.456H555.992ZM561.656 33.024L561.32 30.36V29.688L561.656 27.096H562.64V33.024H561.656ZM552.152 22.128V21.36H555.992V22.416H555.68L552.152 22.128ZM564.32 25.848L563.288 21.456L564.752 22.248H555.992V21.36H565.376L565.448 25.848H564.32ZM569.236 39V38.256L572.764 37.92H573.364L576.916 38.256V39H569.236ZM571.564 39C571.636 36.312 571.636 33.576 571.636 30.792V29.592C571.636 26.832 571.636 24.096 571.564 21.36H574.564C574.516 24.048 574.516 26.808 574.516 29.592V30.792C574.516 33.528 574.516 36.288 574.564 39H571.564ZM569.236 22.128V21.36H576.916V22.128L573.364 22.416H572.764L569.236 22.128ZM581.164 39V38.256L584.692 37.92H585.004V39H581.164ZM583.492 39C583.564 36.312 583.564 33.576 583.564 31.176V29.592C583.564 26.832 583.564 24.072 583.492 21.36H586.492C586.42 24.072 586.42 26.808 586.42 29.64V31.104C586.42 33.528 586.42 36.288 586.492 39H583.492ZM585.004 39V38.136H593.572L592.18 38.856L593.236 34.08H594.388L594.292 39H585.004ZM581.164 22.128V21.36H588.94V22.128L585.364 22.416H584.692L581.164 22.128ZM599.535 39V38.256L603.207 37.92H603.999L607.743 38.256V39H599.535ZM602.127 39C602.199 36.312 602.199 33.576 602.199 30.792V29.592C602.199 26.832 602.199 24.096 602.127 21.36H605.127C605.055 24.048 605.055 26.808 605.055 29.592V30.792C605.055 33.528 605.055 36.288 605.127 39H602.127ZM596.007 26.16L596.151 21.36H611.103L611.271 26.16H610.095L608.991 21.36L610.335 22.248H596.919L598.287 21.36L597.183 26.16H596.007ZM614.863 39V38.256L618.391 37.92H618.703V39H614.863ZM617.191 39C617.263 36.312 617.263 33.576 617.263 30.792V29.592C617.263 26.832 617.263 24.096 617.191 21.36H620.191C620.119 24.048 620.119 26.808 620.119 29.784V30.408C620.119 33.528 620.119 36.288 620.191 39H617.191ZM618.703 39V38.136H627.799L626.359 38.88L627.367 34.416H628.519L628.423 39H618.703ZM618.703 30.456V29.616H624.535V30.456H618.703ZM624.319 32.88L623.983 30.216V29.712L624.319 27.096H625.303V32.88H624.319ZM614.863 22.128V21.36H618.703V22.416H618.391L614.863 22.128ZM626.911 25.848L625.903 21.48L627.343 22.248H618.703V21.36H627.967L628.063 25.848H626.911ZM632.627 39V38.256L636.155 37.92H636.779L640.307 38.256V39H632.627ZM634.955 39C635.027 36.312 635.027 33.576 635.027 30.792V29.592C635.027 26.832 635.027 24.096 634.955 21.36H637.931C637.835 24.072 637.835 26.784 637.835 30.048V30.624C637.835 33.528 637.835 36.288 637.931 39H634.955ZM646.475 39.288C644.651 39.288 643.787 38.76 643.523 37.32L642.515 33.504C642.059 31.536 641.435 30.72 639.419 30.72H636.491V29.904H639.899C642.587 29.904 643.955 28.128 643.955 25.92C643.955 23.568 642.611 22.2 639.875 22.2H636.467V21.36H640.475C644.459 21.36 646.667 22.992 646.667 25.872C646.667 28.2 644.915 30.192 640.739 30.456V30.192C644.027 30.384 644.939 31.464 645.467 33.84L646.739 38.664L645.347 38.016L648.851 38.256V39C648.131 39.192 647.483 39.288 646.475 39.288ZM632.627 22.128V21.36H636.467V22.416H636.155L632.627 22.128Z" fill="#5B5B5B"/>
<mask id="path-2-inside-1_1210_1204" fill="white">
<path d="M499 0H702V58H499V0Z"/>
</mask>
<path d="M499 0V-2H497V0H499ZM702 0H704V-2H702V0ZM499 2H702V-2H499V2ZM700 0V58H704V0H700ZM501 58V0H497V58H501Z" fill="black" mask="url(#path-2-inside-1_1210_1204)"/>
<line y1="57" x2="499" y2="57" stroke="black" stroke-width="2"/>
<line x1="702" y1="57" x2="1201" y2="57" stroke="black" stroke-width="2"/>
</svg>
