<svg width="24" height="40" viewBox="0 0 24 40" fill="none" xmlns="http://www.w3.org/2000/svg">
<g id="Union">
<mask id="path-1-inside-1_319_5116" fill="white">
<path fill-rule="evenodd" clip-rule="evenodd" d="M23.8904 19.9083L12 0L0.109589 19.9083H4.39882e-05L0.0548167 20L0 20.0917H0.109633L12 40L23.8905 20.0917H24L23.9452 20L24 19.9083H23.8904Z"/>
</mask>
<path d="M12 0L12.8585 -0.512765L12 -1.95021L11.1415 -0.512765L12 0ZM23.8904 19.9083L23.0319 20.421L23.3229 20.9083H23.8904V19.9083ZM0.109589 19.9083V20.9083H0.677112L0.968118 20.421L0.109589 19.9083ZM4.39882e-05 19.9083V18.9083H-1.76199L-0.858486 20.421L4.39882e-05 19.9083ZM0.0548167 20L0.913344 20.5127L1.2196 20L0.913347 19.4872L0.0548167 20ZM0 20.0917L-0.858527 19.579L-1.76205 21.0917H0V20.0917ZM0.109633 20.0917L0.968162 19.579L0.677156 19.0917H0.109633V20.0917ZM12 40L11.1415 40.5128L12 41.9502L12.8586 40.5128L12 40ZM23.8905 20.0917V19.0917H23.3229L23.0319 19.579L23.8905 20.0917ZM24 20.0917V21.0917H25.762L24.8585 19.579L24 20.0917ZM23.9452 20L23.0867 19.4873L22.7804 20L23.0867 20.5128L23.9452 20ZM24 19.9083L24.8586 20.421L25.7621 18.9083H24V19.9083ZM11.1415 0.512765L23.0319 20.421L24.7489 19.3955L12.8585 -0.512765L11.1415 0.512765ZM0.968118 20.421L12.8585 0.512765L11.1415 -0.512765L-0.748939 19.3955L0.968118 20.421ZM0.109589 18.9083H4.39882e-05V20.9083H0.109589V18.9083ZM-0.858486 20.421L-0.803714 20.5127L0.913347 19.4872L0.858574 19.3955L-0.858486 20.421ZM0.858527 20.6045L0.913344 20.5127L-0.803711 19.4872L-0.858527 19.579L0.858527 20.6045ZM0.109633 19.0917H0V21.0917H0.109633V19.0917ZM-0.748895 20.6045L11.1415 40.5128L12.8586 39.4872L0.968162 19.579L-0.748895 20.6045ZM12.8586 40.5128L24.749 20.6045L23.0319 19.579L11.1415 39.4872L12.8586 40.5128ZM24 19.0917H23.8905V21.0917H24V19.0917ZM23.0867 20.5128L23.1415 20.6045L24.8585 19.579L24.8038 19.4873L23.0867 20.5128ZM24.8038 20.5128L24.8586 20.421L23.1415 19.3955L23.0867 19.4873L24.8038 20.5128ZM24 18.9083H23.8904V20.9083H24V18.9083Z" fill="#222222" mask="url(#path-1-inside-1_319_5116)"/>
</g>
</svg>
