<svg xmlns="http://www.w3.org/2000/svg" viewBox="0 0 375.65 356.58" style="enable-background:new 0 0 375.65 356.58" xml:space="preserve"><style>.st0{fill:#464648}.st1{fill:#ececea}</style><g id="圖層_1"><path class="st1" d="M187.3 24.6c1.07-.08 2.15-.2 3.23-.21 3.95-.04 7.14-.15 10.31.07 2.9.2 6.22.23 8.51 1.68 1.9 1.2 3.62.57 5.28 1.21 1.81.7 3.55 1.57 5.32 2.35.14.06.31.07.46.11 1.95.54 4.01.84 5.82 1.68 2.18 1.01 4.1 2.57 6.23 3.71 1.38.74 2.95 1.09 4.38 1.75.82.38 1.51 1.03 2.27 1.55 1.16.8 2.35 1.57 3.49 2.39 1.19.85 2.34 1.76 3.54 2.61 1.58 1.11 3.25 2.09 4.76 3.29 1.22.97 2.28 2.16 3.37 3.28.62.64 1.11 1.42 1.8 1.97 1.23 1 2.58 1.84 3.82 2.83.54.44.88 1.11 1.37 1.63.85.89 1.77 1.71 2.6 2.62 1.11 1.22 2.1 2.55 3.24 3.73 1.14 1.18 2.55 2.11 3.6 3.35 1.24 1.47 2.17 3.19 3.32 4.74.57.77 1.31 1.42 1.98 2.11.61.63 1.39 1.17 1.81 1.91 1.07 1.86 1.89 3.87 3 5.71.5.82 1.45 1.36 2.2 2.02.14.12.39.25.39.38-.03 2.01 1.41 2.97 2.7 4.16.72.66.98 1.82 1.44 2.76 1.02 2.08 2 4.18 3.05 6.25.93 1.83 1.96 3.61 2.87 5.45.92 1.86 1.65 3.83 2.65 5.65.65 1.19 1.63 2.21 2.46 3.31.02.03.07.05.08.09.55 1.46 1.07 2.93 1.67 4.38.76 1.83 1.58 3.63 2.37 5.44.03.07.09.13.11.21.55 2.18.95 4.42 1.71 6.53.54 1.51 1.56 2.85 2.37 4.27.08.13.21.26.24.4.47 2.58.76 5.21 1.46 7.72.56 2.01 1.67 3.87 2.46 5.83.23.57.21 1.24.29 1.86.51 3.76.32 7.83 1.79 11.15.89 2 .75 3.8 1.18 5.66.4 1.77.62 3.6 1.22 5.29.64 1.82 1.74 3.48 2.43 5.29.36.93.24 2.03.38 3.05.5 3.73.26 7.79 1.77 11.06 1.12 2.43.75 4.61 1.14 6.88.48 2.83.08 6.11 1.41 8.43 1.43 2.49.15 5.33 1.43 7.1 1.93 2.68.14 5.69 1.41 7.89 1.49 2.57.97 5.1 1.34 7.65.29 1.94.78 3.85 1.08 5.79.55 3.53.28 7.44 1.78 10.49 1.2 2.44.08 5.05 1.3 6.79 1.71 2.43.2 5.44 1.53 7.19 1.74 2.29.7 4.49 1.19 6.66.45 1.99.2 4.55 1.37 5.86 1.92 2.15.28 4.7 1.4 6.41 1.61 2.48.32 5.49 1.57 7.42 1.22 1.88.89 3.55 1.13 5.32.04.29-.6.94-.95.97-1.39.1-2.88.29-4.17-.08-1.8-.52-3.46-1.55-5.16-2.38-1.1-.54-2.17-1.15-3.16-1.87-1.59-1.16-3.1-2.42-4.7-3.56-1.61-1.15-3.33-2.16-4.96-3.28-.57-.39-1.03-.95-1.57-1.39-1.59-1.28-3.12-2.66-4.82-3.77-1.15-.75-2.53-1.15-3.83-1.67-1.94-.79-5.54 3.81-7.49 3.05-.3-.12-1.44-1.1-1.76-1.11-2.44-.03-2.63-4.67-5.05-4.47-2.1.17-4.76.11-6.11 1.33-2.12 1.9-4.27 1.19-6.27 1.03-1.82-.15-3.62-1.34-5.3-2.3-1.69-.97-3.15-2.35-4.73-3.49-1.68-1.22-3.26-2.57-4.91-3.83-1.57-1.2-4.34-.64-5.85-1.93-.07-.03-.49-.41-.56-.44-4.16-.75-6.79-4.38-10.84-2.88-2.1.78-4.12.71-6.08 1.33-1.33.42-2.39 1.71-3.59 2.53-.02.01-.04.02-.05.03-1.51.56-3.17.89-4.51 1.73-1.36.85-2.39 2.21-3.58 3.34-.19.18-.42.3-.63.46-1.12.88-2.24 1.76-3.36 2.63-.65.5-1.3 1.33-2 1.39-1.9.16-2.62 1.45-3.6 2.75-.63.83-1.97 1.08-2.83 1.78-2.14 1.74-4.64 1.64-7.08 1.35-.97-.11-2.23-.91-2.67-1.75-1.24-2.38-1.97-5.15-3.07-7.44-1.44-3.02-.84-5.72-.85-8.48-.01-3.22.15-6.81 1.58-9.55 1.01-1.93.69-3.65 1.15-5.41.41-1.58.76-3.17 1.23-4.73.4-1.33.82-2.67 1.46-3.89.7-1.34 1.7-2.53 2.55-3.79.02-.05.05-.1.07-.16.56-1.93.97-3.92 1.73-5.77.5-1.21 1.6-2.16 2.28-3.32.65-1.11 1.02-2.38 1.68-3.49.71-1.19 1.6-2.28 2.43-3.39.45-.6 1.1-1.1 1.42-1.76.67-1.36 1.06-2.87 1.78-4.19.51-.95 1.38-1.71 2.09-2.54.17-.2.39-.35.54-.55.81-1.18 1.64-2.36 2.41-3.57.66-1.04 1.21-2.14 1.87-3.18.49-.77 1-1.55 1.63-2.21 1.32-1.37 2.64-2.77 4.12-3.96 1-.8 2.32-1.19 3.42-1.87.6-.37.99-1.13 1.62-1.42 2.07-.96 4.39-1.5 6.26-2.74 4.17-2.77 8.65-.95 12.95-1.14 1.56-.07 3.19 1.54 4.79 2.4.06.03.09.16.15.18 1.53.45 3.07 1.27 4.6 1.26 3.88-.03 6-3.9 4.77-7.41-.31-.88-1.77-1.39-2.74-2.01-1.36-.87-2.76-1.68-4.13-2.52-.06-.04-.09-.15-.16-.17-1.66-.54-3.28-1.33-4.98-1.56-4.01-.55-8.05-.97-12.09-1.14-1.62-.06-3.28 1-4.91.99-1.38-.01-2.99-.54-4.08-1.39-1.22-.96-1.86-2.63-2.95-3.8-1.03-1.11-2.36-1.93-3.49-2.95-.74-.67-1.33-1.52-2.04-2.23-.69-.68-1.41-1.35-2.18-1.93-1.12-.84-2.29-1.6-3.44-2.4-.06-.04-.1-.14-.17-.16-1.73-.55-3.45-1.15-5.2-1.61-2.22-.58-4.78-.54-6.65-1.67-4.02-2.43-8.19-.69-12.25-1.02-1.9-.15-3.96.67-5.81 1.39-1.94.75-3.91 1.67-5.53 2.96-1.73 1.37-3.02 3.27-4.56 4.89-.67.71-1.46 1.3-2.2 1.94-.09.07-.26.09-.3.17-.58 1.35-1.19 2.69-1.71 4.06-.86 2.27-1.66 4.57-2.47 6.86-.09.25-.13.52-.13.79-.01 4.44-.14 8.89.05 13.33.1 2.41.98 4.79 1.05 7.2.03 1.08-.85 2.46-1.73 3.23-1.49 1.3-3.46 2.05-4.95 3.35-1.68 1.47-3.04 3.3-4.58 4.93-.2.22-.73.11-.98.3-.98.74-1.91 1.54-2.86 2.33-.63.53-1.2 1.43-1.89 1.53-2.68.39-3.76 2.59-5.39 4.22-.87.88-2.28 1.2-3.4 1.86-.6.35-1.26.78-1.62 1.34-.96 1.5-2.14 2.36-3.92 2.94-1.27.41-2.11 2.08-3.19 3.15-.95.93-2.04 1.73-2.99 2.66-1.1 1.06-2.28 2.03-3.44 3.01-.65.55-1.28 1.14-1.95 1.67-.78.6-1.63 1.12-2.35 1.78-.72.66-1.29 1.48-1.95 2.2-.67.72-1.41 1.37-2.06 2.11-.72.81-1.62 1.58-1.98 2.54-.66 1.77-1.23 3.65-1.31 5.51-.04.92.95 2.02 1.71 2.8 2.42 2.49 5.58 1.59 8.46 1.46 1.2-.05 2.37-1.04 3.52-1.65.67-.36 1.27-.87 1.95-1.22.92-.48 1.86-.91 2.83-1.29.31-.12.66.09.68.42.2 2.43 1.54 3.55 3.9 3.99.78.15 1.35 1.32 2.04 2 .2.19.49.37.75.38 1.12.07 2.25-.05 3.35.12 2.03.32 2.73-1.42 4.05-2.26 2.2-1.41 1.35-3.43 1.13-5.04-.18-1.32-1.51-2.5-2.37-3.71-.38-.54-.93-.96-1.25-1.52-.87-1.51-2.59-2.85-1.62-4.85.21-.44 1.58-.62 2.28-.42.64.18 1.11 1.02 1.63 1.59 1.08 1.2 2.09 2.47 3.22 3.63 1.84 1.88 4.25 1.52 6.57 1.55 2.38.03 3.83-.96 4.36-3.36.19-.85 1.11-1.57 1.19-2.4.22-2.22-.99-3.84-2.53-5.35-.68-.66-.92-1.75-1.43-2.6-.44-.74-1.5-1.54-1.37-2.11.29-1.28 1.03-2.52 1.8-3.63.62-.9 1.53-1.6 2.34-2.36.21-.2.53-.27.76-.45 1.59-1.18 3.17-2.38 4.75-3.57.23-.18.5-.31.73-.49 1.18-.87 2.36-1.72 3.51-2.62.6-.47 1.06-1.21 1.72-1.49 2.3-.96 4.59-2.42 7.2-1.41 1.32.51 2.4 1.61 3.69 2.24.71.34 1.66.12 2.44.37 1.67.52 3.52 1.19 2.84 3.44-.4 1.31-1.49 2.42-2.27 3.61-.14.22-.36.42-.42.66-.47 1.88-.74 3.83-1.41 5.64-.65 1.77-1.7 3.39-2.58 5.08-.02.03-.06.06-.07.1-.51 2.03-1.18 4.03-1.5 6.09-.57 3.65-.11 7.7-1.57 10.92-2.06 4.57-.75 9.01-.91 13.46-.08 2.24 1.44 4.54 2.24 6.81.54 1.53.95 3.13 1.69 4.56.66 1.29 1.7 2.38 2.56 3.56.33.46.52 1.13.96 1.38 1.9 1.04 4.05 1.7 5.76 2.97 3.49 2.59 7.26.78 10.87.93 1.2.05 2.43-1.58 3.71-2.35.89-.54 1.84-1.21 2.82-1.32 2.67-.31 3.83-2.33 5.24-4.13.14-.18.52-.14.73-.28 1.15-.76 2.28-1.54 3.41-2.32 1.6-1.1 3.2-2.2 4.78-3.33.73-.52 1.39-1.16 2.14-1.63 1.32-.82 2.6-1.92 4.05-2.27 3.09-.73 6.28-1.37 9.43-1.4 1.53-.01 3.16 1.32 4.59 2.27 1.35.9 2.56 2.04 3.74 3.17.7.67 1.18 1.58 1.86 2.28 1.02 1.05 2.41 1.76 3.36 2.84.54.61 1.2 1.15 2 1.34.2.05.37.29.58.35 1.92.55 4.19.62 5.7 1.73 3.19 2.35 6.59 1.05 9.81 1.01 2.26-.03 4.51-1.63 6.76-2.45.15-.05.3-.08.45-.1 3.38-.3 6.77-.33 9.8 1.42 1.74 1.01 3.22 2.47 4.86 3.67.88.64 1.85 1.15 2.78 1.73.84.53 1.68 1.05 2.49 1.62 1.16.82 2.34 1.62 3.42 2.53.8.67 1.45 1.51 2.19 2.26.6.62 1.13 1.42 1.87 1.78 1.34.65 2.87.91 4.2 1.56s2.51 1.59 3.76 2.4c.16.1.31.26.48.28 3.96.53 7.94.95 11.87 1.63.95.16 2.27 1.03 2.5 1.84.31 1.09-.27 2.43-.46 3.66-.18 1.22-.12 2.54-.58 3.65-.68 1.66-1.41 3.49-2.65 4.69-4.7 4.57-10.66 2.32-16.13 2.48-2.34.07-5.21-.02-6.95-1.27-2.7-1.95-5.39-1.14-7.94-.99-2.81.16-5.55 1.44-8.32 2.26-1.8.53-3.61 1.02-5.35 1.71-.99.39-1.85 1.13-2.77 1.71-.56.36-1.11.74-1.68 1.07-1.29.76-2.6 1.5-3.9 2.26-.1.06-.14.21-.24.25-1.51.56-3.06 1.03-4.53 1.67-1.78.78-3.49 1.73-5.25 2.54-.41.19-.94.22-1.4.18-4.78-.47-9.72-.42-14.27-1.71-1.86-.53-3.79-.62-5.58-1.23-1.8-.62-3.48-1.57-5.21-2.37-.03-.01-.05-.02-.08-.03-2.32-.55-4.69-.95-6.95-1.69-1.94-.64-3.73-1.72-5.59-2.57-.09-.04-.2-.07-.3-.08-5.66-.49-11.31-1.2-16.97-1.36-2.68-.07-5.41.84-8.08 1.44-1.36.3-2.71.78-3.95 1.4-1.32.67-2.5 1.61-3.75 2.42-.14.09-.29.16-.45.2-1.9.49-3.89.76-5.69 1.49-1.22.5-2.19 1.61-3.28 2.45-.06.05-.1.14-.16.16-1.56.54-3.16.99-4.67 1.64-1.27.55-2.43 1.36-3.63 2.05-.2.11-.37.33-.57.36-4.25.53-8.49 1.35-12.75 1.44-2.79.06-5.66-.75-8.4-1.5-1.98-.54-3.87-1.53-5.68-2.52-1.22-.67-2.22-1.75-3.39-2.53-.95-.64-2.08-1.01-3-1.69-1.7-1.25-4.31-1.23-5.13-3.7-.06-.17-.47-.19-.68-.33-1.2-.83-2.39-1.68-3.58-2.52-.12-.09-.21-.26-.34-.3-1.46-.49-2.99-.82-4.36-1.49-.89-.43-1.54-1.35-2.28-2.07-.14-.13-.2-.39-.35-.44-1.83-.59-3.72-1.04-5.5-1.76-1.4-.56-2.66-1.5-3.99-2.23-.18-.1-.37-.16-.58-.19-4.03-.56-8.37-.36-12.03-1.84-5.04-2.04-10.11-1.42-14.86-.8-5.33.7-10.88.04-15.89 1.42-7.83 2.15-15.55.94-23.25.72-2.3-.06-5.07-.69-7.6-1.19-1.47-.29-2.91-.73-4.24-1.4-1.24-.62-2.32-1.29-3.46-2.11-.21-.15-.48-.46-.7-.6-1.17-.77-2.39-1.48-3.46-2.38-1.24-1.04-2.38-2.2-3.46-3.4-.31-.34-.34-.99-.38-1.51-.02-.26-.29-1.97-.17-2.24.36.22 1.21 1.92 1.58 2.1.3.15.65.27.99.27 2.4.03 4.81.18 7.19-.03 2.22-.19 4.46-.57 6.57-1.27 1.25-.42 2.25-1.6 3.37-2.43 1.64-.62 3.32-1.14 4.92-1.85.54-.24.88-.91 1.37-1.3 1.07-.85 2.2-1.62 3.28-2.47 1.3-1.03 2.64-2.02 3.82-3.17 1.16-1.14 2.06-2.55 3.23-3.69 1.17-1.15 2.55-2.09 3.8-3.17 1.47-1.27 2.79-2.74 4.37-3.83 1.13-.79 2.58-1.51 3.91-1.57 4.19-.18 8.4-.17 12.58.05 2.35.13 4.72 1.29 7.01 1.11 2.03-.16 3.97-1.52 5.94-2.37.99-.42 1.97-.87 2.93-1.34 1.1-.54 2.18-1.12 3.24-1.72.2-.11.3-.42.45-.63.86-1.24 1.71-2.49 2.56-3.73.13-.19.28-.4.3-.61.43-4.3.85-8.61 1.25-12.92.06-.67-.07-1.37.02-2.04.49-3.38.96-6.77 1.62-10.13.13-.66.99-1.21 1.59-1.73.72-.63 1.63-1.07 2.26-1.76 1.08-1.19 1.9-2.61 3.02-3.74.66-.66 1.76-.87 2.56-1.43 1.02-.71 1.94-1.55 2.89-2.35.69-.59 1.29-1.31 2.04-1.8 1.55-1.03 3.35-1.74 4.71-2.95 1.75-1.57 3.13-3.55 4.77-5.26 1.12-1.17 2.41-2.18 3.62-3.27.01-.02.02-.03.03-.05.55-1.76.81-3.68 1.68-5.25 2.47-4.47 1.11-9.21 1.22-13.82.04-1.9-.58-3.86-1.24-5.72-.51-1.43-1.53-3.67-2.31-4.96-1.3-2.17-2.85-4.31-4.66-6.11-1.57-1.56-3.43-2.84-5.17-4.24-1.64-1.32-3.19-2.77-4.95-3.9-1.11-.71-2.51-1.04-3.82-1.35-2.62-.61-5.77-.39-7.78-1.81-2.41-1.7-4.64-.95-6.89-1.04-5.95-.24-11.91-.14-17.86-.1-2.52.02-3.73 1.45-3.74 4.33-.01 1.86 1.17 3.53 2.88 4.28 1.15.51 2.38 1.03 3.6 1.08 4.11.17 8.24-.05 12.35.17 3.34.18 6.7.57 9.96 1.29 1.72.38 3.22 1.72 4.87 2.52 1.3.63 2.74 1 4.01 1.68.98.52 1.81 1.33 2.67 2.06.79.67 1.54 1.39 2.31 2.08.11.1.34.12.39.24.6 1.44 1.11 2.93 1.79 4.34.66 1.36 1.51 2.62 2.26 3.94.12.21.18.46.18.7.02 3 .25 6.02-.09 8.98-.17 1.45-1.32 2.85-2.21 4.14-.91 1.32-2.01 2.53-3.11 3.71-.62.67-1.41 1.18-2.11 1.77-.67.57-1.31 1.18-2 1.73-.52.42-1.11.76-1.64 1.16-.92.69-1.82 1.39-2.73 2.09l-.6.45c-1.16.86-2.3 1.74-3.47 2.58-.84.6-1.75 1.12-2.58 1.74-1.18.88-2.3 1.84-3.45 2.77-.41.33-1.24 1.05-1.64 1.4-.64.57-1.47 1.05-1.85 1.77-.66 1.24-.95 2.67-1.56 3.94-.7 1.44-1.71 2.74-2.36 4.21-.38.85-.12 1.97-.46 2.85-2.33 6-.88 12.27-1.54 18.38-.09.81-1.47 1.44-2.19 2.21-2.83 3.01-6.87 1.97-9.37.97-4.54-1.81-8.87-.62-13.24-.82-1.86-.08-3.79 1.55-5.7 2.4-.14.06-.29.11-.43.18-1.68.87-3.48 1.58-5.01 2.67-1.66 1.18-3 2.8-4.6 4.08-.86.69-2.02.98-2.94 1.6-.78.53-1.45 1.25-2.12 1.93-.75.76-1.43 1.57-2.16 2.34-.64.68-1.28 1.38-1.97 2.01-.75.7-1.55 1.36-2.34 2-1.06.86-2.14 1.7-3.22 2.56-.06.04-.07.17-.12.19-1.46.54-2.88 1.37-4.38 1.56-4.3.56-8.19 1.23-12.5 1.68-.28.03-.95.11-1.21.34-.24.21-.53.23-.78.23-.24-.01-.5-.04-.67-.29-2.62-3.98-.89-8.36-1.05-12.55-.09-2.29.09-5.03 1.28-6.81 1.31-1.96.71-3.91 1.38-5.71.54-1.44 1.65-2.66 2.47-3.99.01-.02.02-.04.03-.07.54-2.12.94-4.3 1.67-6.36.54-1.51 1.52-2.86 2.31-4.28.04-.07.13-.11.15-.18.53-1.55.92-3.17 1.62-4.63.62-1.29 1.6-2.41 2.42-3.6.07-.09.2-.16.23-.26.46-1.46.76-3 1.41-4.37.6-1.26 1.56-2.36 2.36-3.52.11-.16.3-.28.35-.45.56-1.94.97-3.93 1.67-5.82.64-1.75 1.58-3.39 2.38-5.07.02-.04.04-.07.05-.11.53-2.2.9-4.45 1.63-6.57.52-1.52 1.53-2.88 2.33-4.31.05-.1.21-.15.24-.25.55-1.97 1.15-3.94 1.6-5.93.53-2.33.45-4.92 1.48-6.97 1.57-3.13 2.01-6.47 3.07-9.63.65-1.97.49-3.91 1.16-5.72.45-1.23 1.42-2.27 2.11-3.42.19-.32.29-.7.3-1.07.06-1.7-.06-3.42.15-5.09.41-3.3.2-7.03 1.75-9.72 1.38-2.4.48-4.57 1.2-6.71.75-2.25 1.57-4.48 2.36-6.71.03-.09.07-.23.09-.32.52-2.8.87-5.65 1.63-8.39.5-1.8 1.58-3.45 2.41-5.16.05-.1.17-.19.19-.29.55-2.33.94-4.71 1.67-6.99.59-1.86 1.63-3.57 2.44-5.36.01-.04.03-.08.04-.12.54-1.99.9-4.05 1.66-5.94.52-1.29 1.55-2.37 2.37-3.54.11-.16.23-.43.28-.62.47-1.85.76-3.78 1.46-5.53.5-1.23 1.56-2.23 2.38-3.33.07-.09.2-.15.24-.25.55-1.51.9-3.13 1.68-4.52 1.02-1.83 2.38-3.47 3.59-5.19.04-.06.14-.1.17-.17.58-1.45 1.03-2.96 1.77-4.32.49-.9 1.4-1.58 2.11-2.37.19-.21.38-.41.54-.64.79-1.16 1.58-2.32 2.33-3.5.17-.27.14-.69.33-.94a70.09 70.09 0 0 1 2.41-3.05c.59-.72 1.65-1.32 1.77-2.1.4-2.45 2.09-3.66 3.85-5.02.88-.68 1.23-2.03 1.91-3 .67-.97 1.49-1.84 2.25-2.74.56-.67 1.15-1.31 1.73-1.96.51-.57.97-1.19 1.53-1.7 1.2-1.09 2.49-2.07 3.65-3.19 1.16-1.13 2.11-2.47 3.3-3.55 1.38-1.24 2.95-2.26 4.41-3.41.85-.68 1.66-1.42 2.47-2.15.63-.57 1.18-1.25 1.86-1.76 1.75-1.33 3.51-2.65 5.34-3.87 1.04-.69 2.26-1.1 3.33-1.76 1.22-.75 2.35-1.65 3.51-2.48.09-.07.15-.21.24-.24 1.46-.47 2.99-.78 4.36-1.43 1.33-.62 2.51-1.58 3.76-2.39.06-.04.07-.16.13-.19 1.18-.52 2.32-1.16 3.54-1.51 2.26-.65 4.57-1.13 6.86-1.67 1.73-.41 3.94-.27 5.1-1.32 2.26-2.04 4.17-3.34 6.12-4.47 4-2.52 9.14 2.15 12.41 1.9zm62.08 111.81c.09-.24.16-.38.18-.33 1.96-.62 3.15 1.57 5.1.93 2.84-.92 5.75-1.68 8.46-2.88 1.42-.63 3.17-1.84 3.59-3.17.86-2.71 1.04-5.67 1.25-8.54.05-.67-.79-1.52-1.41-2.09-1.21-1.13-2.47-2.25-3.85-3.15-1.38-.9-2.94-2.16-4.41-2.16-3.59 0-7.2.52-10.77 1.07-1.82.28-3.56 1.05-5.34 1.62-.12.04-.17.26-.27.37-.72.75-1.51 1.45-2.16 2.25-1.23 1.52-2.39 3.11-3.57 4.68-.17.22-.33.62-.37.9-.31 1.75-1.12 3.69-.59 5.16.63 1.75 2.32 3.33 3.92 4.46 1.75 1.23 3.87 2.02 5.93 2.7.48.16.99.19 1.53.17 1.22-.05 2.32-.84 2.78-1.99zm-81.86-19.03c-4.92-.02-6.47 1.42-6.21 5.73.11 1.72.99 3.39 1.53 5.08.02.06.13.09.18.14 1.19 1.16 2.33 2.38 3.58 3.47 1.04.9 2.16 1.72 3.35 2.41.84.48 1.83.76 2.79.97.67.14 1.45.17 2.08-.05 1.99-.71 3.94-1.54 5.88-2.39.48-.21.85-.68 1.29-1 .78-.57 1.59-1.58 2.35-1.55.98.04 1.9 1.02 2.91 1.42 2.3.9 4.6 1.94 7 2.43 1.05.21 2.33-.8 3.52-1.22 1.6-.57 3.21-1.11 4.81-1.68.11-.04.13-.28.23-.4.62-.73 1.11-1.75 1.91-2.13 1.64-.77 2.3-1.92 2.27-3.65-.01-.58-7.97-1.72-7.64-1.95 3.02-2.14 7.37-2.66 7.04-4.08-.12-.53-.68-1.2-1.18-1.35-2.78-.85-5.14.5-7.53 1.64-.11.05-.1.32-.2.41-.82.66-1.6 1.74-2.5 1.85-3.24.38-6.42.24-8.98-2.39-.94-.96-5.63.62-6.69 1.58-1.11 1.01-2.54 1.83-3.98 2.23-.67.19-1.81-.66-2.47-1.32-.8-.79-1.28-1.9-1.97-2.82-.36-.47-.8-1.05-1.31-1.19-.84-.24-1.79-.17-2.06-.19zm-58.32 22.34c3.3.05 6.65.26 9.66-1.52.21-.12.35-.37.53-.55.72-.72 1.55-1.36 2.15-2.17 1.26-1.68 2.92-3.3 3.46-5.22.79-2.78-.37-5.42-2.58-7.4-1.48-1.33-2.84-3.06-4.6-3.73-2.52-.95-5.33-1.33-8.04-1.49-1.54-.09-3.12.91-4.72 1.11-2.45.29-5.12-.23-6.45 2.75-.78 1.74-2.21 3.29-2.57 5.08-.43 2.14-.06 4.45.01 6.68.01.31.28.66.53.89 1.11 1.08 2.19 2.21 3.39 3.18 1.09.88 2.24 2.01 3.52 2.28 1.82.39 3.8.08 5.71.11zm128.41-32.62h-.02c0-1.36.03-2.71-.03-4.07-.01-.29-.32-.63-.58-.83-.69-.54-1.4-1.07-2.16-1.51-1.6-.92-3.15-2.09-4.88-2.55-1.56-.42-3.33-.05-5 0-.3.01-.67.05-.89.23-1.54 1.22-1.3 4.54-2.93 5.61-1.48.97-1.49 1.13-1.47 3.08 0 .15-3.08-.84-3.18-.69-.83 1.36-2.37 2.73-2.34 4.07.05 2.97-1.71 6.34 1.22 8.92.86.75 1.77 1.86 2.75 1.97 2.52.29 5.1.11 7.65.1.21 0 .42-.05.61-.15 1.58-.81 3.19-1.57 4.71-2.47.9-.53 1.74-1.21 2.48-1.94.6-.59 1.04-1.35 1.5-2.07.87-1.36 1.92-2.66 2.46-4.14.41-1.05.1-2.36.1-3.56zm-105.82.27c.63 3 1.16 5.56 1.7 8.11.02.11.08.21.17.29 1.29 1.1 2.47 2.4 3.92 3.25 1.73 1.01 3.62 2.09 5.55 2.34 3.11.41 6.42.41 8.66-2.47.96-1.24 2.06-2.68 2.25-4.14.21-1.58-.49-3.32-.95-4.95-.44-1.54-1.08-3.01-1.64-4.51-.03-.09-.18-.14-.28-.2-.82-.57-1.67-1.1-2.44-1.72-1.55-1.23-2.94-2.68-4.6-3.73-1.61-1.01-9.71.46-10.54 1.69-.02.03-.03.06-.04.09-.62 2.07-1.23 4.12-1.76 5.95z"/><path class="st1" d="M213.38 174.31c1.89.42 4.44.83 6.87 1.6.86.27 1.44 1.43 2.18 2.14.68.65 1.3 1.54 2.12 1.82 2.9.99 4.4 3.69 3.14 6.52-.39.87-1.62 1.34-2.41 2.07-1.1 1.02-2.17 2.07-3.16 3.19-.67.76-1.22 1.61-1.8 2.44-1.14 1.63-3.48 2.26-3.69 4.74-.07.76-1.34 1.41-2.04 2.13-.5.51-.99 1.04-1.47 1.58-.62.7-1.11 1.62-1.88 2.08-.61.36-1.68.45-2.3.15-.83-.39-1.41-1.29-2.13-1.94-.19-.17-.48-.22-.69-.38-1.1-.85-2.19-1.72-3.27-2.59-.77-.62-1.52-1.26-2.28-1.89-.14-.12-.37-.2-.42-.35-.51-1.48-.55-3.47-1.56-4.37-2.2-1.95-1.21-4.23-1.06-6.25.12-1.52 1.41-2.96 2.21-4.43.55-1.02 1.03-2.11 1.77-2.98.8-.93 1.8-1.73 2.82-2.43 1.31-.89 2.66-1.85 4.13-2.36 1.31-.44 2.81-.31 4.92-.49z"/><path class="st0" d="M248.56 138.35c-1.2 0-2.43.21-3.51-.14-2.06-.68-4.18-1.47-5.93-2.7-1.6-1.13-3.29-2.71-3.92-4.46-.52-1.46.28-3.4.59-5.16.05-.27.21-.67.37-.9 1.18-1.57 2.34-3.15 3.57-4.68.65-.81 1.44-1.5 2.16-2.25.11-.11.15-.33.27-.37 1.77-.57 3.52-1.34 5.34-1.62 3.57-.54 7.18-1.07 10.77-1.07 1.48 0 3.03 1.26 4.41 2.16 1.38.9 2.64 2.02 3.85 3.15.61.57 1.46 1.42 1.41 2.09-.21 2.87-.38 5.83-1.25 8.54-.42 1.33-2.16 2.54-3.59 3.17-2.71 1.2-5.63 1.96-8.46 2.88-1.95.64-2.88 1-5.31 1.28-.19.04-.45.04-.77.08zM167.52 117.38c.27.02 1.22-.05 2.08.19.51.14.96.72 1.31 1.19.69.92 1.17 2.02 1.97 2.82.66.65 1.81 1.5 2.47 1.32 1.43-.4 2.87-1.22 3.98-2.23 1.05-.96 5.75-2.54 6.69-1.58 2.57 2.63 5.74 2.77 8.98 2.39.89-.11 1.68-1.19 2.5-1.85.11-.09.1-.36.2-.41 2.38-1.14 4.75-2.49 7.53-1.64.5.15 1.05.83 1.18 1.35.33 1.41 1.07 2.17.89 4.33-.34.24-.3 1.12-.29 1.7.02 1.72-.63 2.87-2.27 3.65-.79.37-1.29 1.39-1.91 2.13-.1.12-.12.36-.23.4-1.6.57-3.21 1.11-4.81 1.68-1.19.42-2.47 1.43-3.52 1.22-2.4-.49-4.7-1.53-7-2.43-1.01-.4-1.93-1.38-2.91-1.42-.76-.03-1.58.98-2.35 1.55-.44.32-.81.79-1.29 1-1.94.85-3.89 1.68-5.88 2.39-.62.22-1.41.19-2.08.05-.96-.2-1.95-.48-2.79-.97-1.19-.68-2.31-1.51-3.35-2.41-1.26-1.09-2.39-2.31-3.58-3.47-.06-.05-.16-.08-.18-.14-.54-1.69-1.43-3.36-1.53-5.08-.28-4.31 1.27-5.75 6.19-5.73zM109.2 139.72c-1.92-.03-3.89.29-5.73-.1-1.28-.27-2.42-1.4-3.52-2.28-1.2-.97-2.28-2.09-3.39-3.18-.24-.24-.52-.59-.53-.89-.08-2.23-.45-4.54-.01-6.68.36-1.79 1.79-3.34 2.57-5.08 1.34-2.98 4-2.46 6.45-2.75 1.6-.19 3.18-1.2 4.72-1.11 2.71.16 5.52.53 8.04 1.49 1.75.66 3.12 2.4 4.6 3.73 2.21 1.99 3.36 4.62 2.58 7.4-.54 1.92-2.2 3.54-3.46 5.22-.6.81-1.43 1.45-2.15 2.17-.18.18-.32.43-.53.55-2.99 1.77-6.34 1.56-9.64 1.51zM219.48 102.07c1.63-1.07 3.05-2.47 4.58-3.7.22-.18.59-.22.89-.23 1.68-.05 3.45-.42 5 0 1.73.47 3.28 1.64 4.88 2.55.76.44 1.47.97 2.16 1.51.26.2.56.54.58.83.06 1.35.03 2.71.03 4.07h.02c0 1.2.31 2.51-.08 3.56-.55 1.48-1.6 2.78-2.46 4.14-.46.72-.9 1.48-1.5 2.07-.74.73-1.58 1.41-2.48 1.94-.02.01-.03.02-.05.03-3.12 1.84-6.73 2.72-10.36 2.65-.86-.02-1.71-.06-2.56-.16-.98-.11-1.9-1.22-2.75-1.97-2.93-2.57-1.17-5.94-1.22-8.92-.02-1.34 1.15-2.73 1.98-4.09M131.79 107.37c.54-1.82 1.14-3.88 1.75-5.93.01-.03.02-.06.04-.09.83-1.23 8.93-2.71 10.54-1.69 1.66 1.04 3.06 2.5 4.6 3.73.78.62 1.63 1.15 2.44 1.72.09.07.24.11.28.2.56 1.5 1.2 2.98 1.64 4.51.46 1.62 1.15 3.36.95 4.95-.19 1.46-1.29 2.9-2.25 4.14-2.23 2.88-5.55 2.88-8.66 2.47-1.93-.26-3.82-1.33-5.55-2.34-1.44-.85-2.62-2.15-3.92-3.25a.456.456 0 0 1-.17-.29c-.53-2.58-1.07-5.13-1.69-8.13z"/><path class="st0" d="M199.75 13.5c3.18.18 6.69.08 9.4 1.41 1.95.96 3.7.77 5.51 1.22 1.42.35 2.81.82 4.2 1.29 1.24.42 2.48.84 3.7 1.31 2.58.98 5.21 1.86 7.74 2.95 1.95.84 3.81 1.9 5.69 2.89 1.78.93 3.61 1.8 5.29 2.89 1.74 1.13 3.28 2.56 5.01 3.72 1.04.7 2.28 1.09 3.37 1.73.55.32.91.93 1.42 1.34 1.03.82 2.09 1.62 3.17 2.38 1.6 1.11 3.24 2.16 4.85 3.25.62.42 1.3.8 1.8 1.33 1.13 1.23 2.08 2.62 3.25 3.8 1.07 1.08 2.38 1.92 3.5 2.95.73.67 1.31 1.5 1.96 2.27.51.6.96 1.28 1.55 1.8 1.16 1.03 2.58 1.83 3.57 3 1.12 1.32 1.99 2.85 2.96 4.3.38.58.84 1.11 1.33 1.6 1.34 1.33 2.73 2.62 4.06 3.96.19.2.18.59.35.82.79 1.05 1.61 2.08 2.43 3.11.53.66 1.18 1.25 1.58 1.98 1.11 1.99 1.99 4.11 3.21 6.03 1.05 1.65 2.54 3.02 3.65 4.64.72 1.05 1.01 2.38 1.68 3.48.73 1.19 1.66 2.25 2.51 3.36.05.06.15.09.17.15.57 1.48 1.03 3 1.71 4.43.62 1.3 1.46 2.5 2.2 3.74.08.14.23.25.27.41.16.67.22 1.36.51 1.98 1.31 2.8 2.4 5.81 4.01 8.49 1.26 2.11 2.44 4.12 2.71 6.7.13 1.23 1.51 2.33 2.33 3.48.05.06.12.12.14.19.54 1.98.99 3.99 1.64 5.93.72 2.15 1.62 4.23 2.44 6.34.03.07.08.14.09.22.53 2.35 1.03 4.72 1.59 7.06.48 2 .43 4.57 1.68 5.85 1.64 1.68.79 3.34 1.19 4.96.51 2.09.22 4.77 1.44 6.21 1.6 1.89.25 4.22 1.35 5.44 2.1 2.32.13 5.36 1.5 7.12 1.95 2.5.64 5.03 1.23 7.46.52 2.13.21 4.82 1.41 6.36 2 2.57.07 5.53 1.37 7.66 1.8 2.95.15 6.46 1.6 8.85 1.6 2.63.57 5.08 1.13 7.53.61 2.63 1.04 5.3 1.55 7.96.37 1.97.32 4.16 1.19 5.87 1.57 3.07.36 6.68 1.69 9.32 1.21 2.41.03 4.94 1.24 6.72 1.91 2.78.12 6.15 1.57 8.39 1.53 2.36.69 4.58 1.19 6.79.54 2.37.18 5.26 1.43 7.07 1.64 2.36.64 4.67 1.23 6.91.52 1.96.41 4.47 1.61 5.78 1.84 2.01.75 4.07 1.2 6.04.59 2.6 1.03 5.23 1.57 7.85.33 1.61.33 3.47 1.18 4.76 2.2 3.35.23 7.37 1.67 10.37 1.19 2.5.62 4.79 1.24 7.09.07.27.02 1.28.19 1.55.2.32.1.99.02 1.3-.36 1.41.14 1.74-.43 3.07-.71 1.63-1.64 3.17-2.47 4.75-.52 1-.92 2.08-1.57 2.98-.69.95-1.65 1.71-2.48 2.55-.46.47-.96.91-1.48 1.32-1.01.78-2.05 1.51-3.07 2.27-.06.05-.11.14-.17.16-1.82.53-3.62 1.19-5.48 1.54-3.04.57-6.13 1.28-9.19 1.28-2.77 0-5.85-.29-8.26-1.5-5.01-2.51-10.08-.81-15.09-.97-1.15-.04-2.34 1.46-3.51 2.25-.09.06-.14.21-.24.25-1.48.55-3.05.92-4.41 1.68-1.84 1.03-3.51 2.37-5.25 3.58-.09.07-.16.2-.26.24-1.52.56-3.06 1.04-4.54 1.68-1.66.72-3.25 1.59-4.89 2.37-.27.13-.62.13-.93.13-5.68 0-11.36.22-17.02-.11-2.48-.15-4.89-1.46-7.34-2.23-.17-.04-.33-.08-.5-.13-2.66-.55-5.38-.94-7.97-1.72-1.37-.41-2.53-1.51-3.79-2.31-.13-.08-.25-.23-.38-.25-2.5-.47-5.22-.47-7.47-1.49-5.37-2.44-10.92-1.18-16.35-1.17-2.62 0-5.24 1.5-7.86 2.32-.11.04-.22.08-.34.11-1.94.55-3.95.92-5.8 1.69-1.29.54-2.31 1.68-3.52 2.44-.84.53-1.78.93-2.71 1.31-1.47.6-3.01 1.02-4.44 1.71-1.35.65-2.59 1.55-3.88 2.34-.16.1-.3.29-.47.32-3.43.56-6.86 1.13-10.3 1.62-2.81.4-5.63 1-8.44.98-2.65-.02-5.32-.64-7.94-1.17-1.43-.29-2.81-.87-4.18-1.43-2.27-.92-4.6-1.77-6.73-2.95-1.73-.96-3.21-2.38-4.82-3.58-.17-.13-.44-.14-.62-.26-1.22-.83-2.44-1.68-3.66-2.51-.21-.14-.47-.22-.68-.36-1.12-.78-2.25-1.54-3.35-2.36-.61-.46-1.1-1.14-1.76-1.47-1.4-.69-2.91-1.14-4.31-1.84-1.28-.64-2.48-1.46-3.71-2.21-.06-.03-.05-.18-.11-.2-1.35-.54-2.72-1.04-4.05-1.62-1.94-.84-3.85-1.75-5.78-2.62-.15-.07-.31-.11-.47-.12-6.42-.5-12.83-1.36-19.25-1.38-5.62-.02-11.46.14-16.83 1.58-8.28 2.23-16.51.85-24.71.73-2.21-.03-5.43-.07-7.35-1.32-1.91-1.24-3.68-.69-5.4-1.28-2.09-.72-4.11-1.69-6.11-2.65-1.83-.87-3.62-1.84-5.37-2.85-.58-.33-1.03-.92-1.48-1.45-1.06-1.23-2.24-2.41-3.1-3.77-1.06-1.67-1.79-3.55-2.79-5.26-.15-.26-.31-.51-.48-.76-.99-2.22-1.96-4.37-2.96-6.59-.22-.92-.46-1.84-.78-2.73-2.29-6.45-1.4-13.11-1.31-19.68.04-3.02.2-6.44 1.64-8.9 1.18-2.01.59-3.85 1.26-5.61.66-1.73 1.88-3.25 2.53-4.99.68-1.82.84-3.83 1.51-5.65.51-1.39 1.47-2.61 2.24-3.91.11-.19.33-.34.4-.54.58-1.87.98-3.82 1.74-5.61.55-1.31 1.56-2.43 2.35-3.64.08-.13.08-.3.13-.45.54-1.51.9-3.13 1.68-4.51 1.02-1.81 2.37-3.43 3.57-5.14.03-.07.07-.14.1-.21.57-1.96.97-3.98 1.73-5.86.67-1.64 1.71-3.13 2.59-4.69.02-.03.05-.06.06-.1.53-1.74.95-3.51 1.61-5.2.6-1.54 1.45-2.98 2.19-4.46.05-.1.17-.18.2-.29.57-2.29 1-4.64 1.75-6.87.64-1.91 1.76-3.65 2.47-5.54.34-.89.2-1.96.32-2.94.41-3.39-.03-7.27 1.51-10.03 1.57-2.82-.04-5.69 1.29-7.84 1.58-2.54.18-5.7 1.54-7.41 1.59-2 .61-3.81 1.21-5.57.75-2.23 1.62-4.41 2.43-6.61.01-.03.02-.05.02-.08.53-2.92 1.02-5.86 1.6-8.77.46-2.32.99-4.62 1.57-6.91.36-1.41.81-2.82 1.36-4.17.7-1.68 1.54-3.3 2.33-4.95.02-.04.05-.06.06-.1.54-2.17.94-4.39 1.68-6.49.54-1.54 1.54-2.92 2.33-4.37.11-.2.26-.39.32-.61.48-1.91.88-3.84 1.42-5.74.41-1.45.91-2.89 1.53-4.26.86-1.92 1.89-3.76 2.82-5.65.89-1.81 1.72-3.66 2.64-5.47.95-1.87 1.6-4.09 3.04-5.47 2.1-2 3.08-4.33 3.97-6.92.28-.81 1.31-1.35 2-2.01.19-.18.42-.32.56-.53.88-1.22 1.75-2.43 2.59-3.68.19-.28.18-.68.36-.96.74-1.11 1.52-2.19 2.27-3.29.17-.25.21-.58.39-.81.82-1.06 1.65-2.1 2.5-3.13.56-.68 1.19-1.3 1.73-1.98 1.33-1.66 2.66-3.32 3.92-5.03 1.14-1.54 2.14-3.18 3.3-4.7.61-.79 1.44-1.41 2.17-2.1.55-.51 1.16-.96 1.65-1.53 1.01-1.18 1.86-2.5 2.94-3.59.77-.78 1.84-1.25 2.72-1.93.96-.74 1.88-1.56 2.79-2.36.61-.54 1.15-1.15 1.78-1.66.76-.62 1.58-1.17 2.37-1.76.51-.38.99-.79 1.49-1.18.84-.64 1.68-1.28 2.54-1.91 1.02-.74 2.07-1.43 3.08-2.18.95-.71 1.86-1.48 2.77-2.23.17-.14.25-.38.43-.5 1.27-.82 2.56-1.62 3.84-2.43.15-.07.4-.2.56-.27 1.43-.5 2.91-.9 4.24-1.58 1.25-.64 2.31-1.63 3.46-2.47.06-.05.1-.14.17-.16 1.52-.53 3.07-.98 4.55-1.61 1.67-.71 3.28-1.58 4.91-2.38.07-.03.13-.1.2-.12 2.14-.52 4.29-1.04 6.44-1.55 1.78-.42 3.9-.74 5.48-1.27 1.55-.52 3.13-.96 4.75-1.18 1.08-.15 2.2-.28 3.18-.42 4.8-.72 9.65-1.15 14.48-1.69M34.12 284.27c4.32-.45 8.65-.75 12.95-1.31 1.5-.2 2.93-1.02 4.38-1.56.06-.02.07-.14.12-.19 1.07-.85 2.15-1.69 3.22-2.56.8-.65 1.59-1.31 2.34-2 .69-.64 1.32-1.33 1.97-2.01.73-.77 1.41-1.59 2.16-2.34.67-.68 1.33-1.4 2.12-1.93.92-.62 2.08-.92 2.94-1.6 1.6-1.28 2.94-2.89 4.6-4.08 1.53-1.09 3.33-1.79 5.01-2.67.14-.07.29-.11.43-.18 1.9-.85 3.84-2.48 5.7-2.4 4.37.19 8.69-.99 13.24.82 2.5 1 6.54 2.04 9.37-.97.72-.77 2.1-1.41 2.19-2.21.66-6.11-.79-12.39 1.54-18.38.34-.88.09-2 .46-2.85.65-1.46 1.66-2.76 2.36-4.21.62-1.27.9-2.7 1.56-3.94.38-.72 1.21-1.2 1.85-1.77.49-.43 1.13-.99 1.64-1.4 1.15-.92 2.27-1.89 3.45-2.77.83-.62 1.74-1.13 2.58-1.74 1.17-.84 2.31-1.71 3.47-2.58.2-.15.4-.29.6-.45.91-.7 1.81-1.4 2.73-2.09.54-.4 1.12-.74 1.64-1.16.69-.55 1.32-1.16 2-1.73.7-.59 1.49-1.1 2.11-1.77 1.1-1.18 2.19-2.39 3.11-3.71.89-1.29 2.04-2.69 2.21-4.14.34-2.96.11-5.98.09-8.98 0-.24-.06-.49-.18-.7-.74-1.32-1.6-2.58-2.26-3.94-.68-1.4-1.19-2.89-1.79-4.34-.05-.11-.28-.13-.39-.24-.77-.69-1.52-1.42-2.31-2.08-.86-.72-1.69-1.53-2.67-2.06-1.27-.68-2.71-1.05-4.01-1.68-1.65-.8-3.15-2.14-4.87-2.52-3.26-.72-6.62-1.11-9.96-1.29-4.11-.22-8.24 0-12.35-.17-1.21-.05-2.44-.57-3.59-1.08-1.71-.75-2.89-2.42-2.88-4.28.01-2.88 1.22-4.31 3.74-4.33 5.96-.04 11.92-.14 17.86.1 2.25.09 4.48-.66 6.89 1.04 2.01 1.42 5.16 1.2 7.78 1.81 1.31.31 2.71.64 3.82 1.35 1.76 1.13 3.31 2.58 4.95 3.9 1.74 1.4 3.59 2.68 5.17 4.24 1.82 1.8 3.37 3.95 4.67 6.12.77 1.3 1.79 3.53 2.3 4.95.67 1.86 1.29 3.83 1.25 5.73-.11 4.61 1.25 9.35-1.22 13.82-.87 1.58-1.13 3.49-1.68 5.25-.01.02-.02.03-.03.05-1.21 1.09-2.5 2.1-3.62 3.27-1.63 1.71-3.01 3.69-4.77 5.26-1.36 1.22-3.16 1.93-4.71 2.95-.75.5-1.35 1.21-2.04 1.8-.95.81-1.87 1.65-2.89 2.35-.8.56-1.9.77-2.56 1.43-1.13 1.13-1.95 2.55-3.02 3.74-.63.7-1.54 1.14-2.26 1.76-.6.52-1.46 1.07-1.59 1.73-.66 3.35-1.13 6.74-1.62 10.13-.1.67.04 1.36-.02 2.04-.4 4.31-.82 8.61-1.25 12.92-.02.21-.17.42-.3.61-.85 1.25-1.71 2.49-2.56 3.73-.15.21-.24.52-.45.63-1.07.6-2.15 1.18-3.24 1.72-.96.48-1.94.92-2.93 1.34-1.97.85-3.91 2.21-5.94 2.37-2.29.18-4.65-.98-7.01-1.11-4.19-.22-8.39-.23-12.58-.05-1.33.06-2.78.78-3.91 1.57-1.58 1.1-2.9 2.57-4.37 3.83-1.25 1.08-2.62 2.02-3.8 3.17-1.16 1.14-2.06 2.55-3.23 3.69-1.18 1.16-2.52 2.15-3.82 3.17-1.07.85-2.21 1.62-3.28 2.47-.49.39-.83 1.06-1.37 1.3-.37.17-.75.32-1.12.47-1.95 1.03-3.89 2.05-5.84 3.08-.42.31-.85.58-1.32.73-2.1.7-4.35 1.08-6.57 1.27-2.38.21-4.79.05-7.19.03-.33 0-.68-.13-.99-.27-.38-.18-.67-.78-1.07-.66-.29.08-.37.55-.35.81.04.52.07 1.16.38 1.51 1.08 1.2 2.23 2.36 3.46 3.4 1.07.89 2.29 1.61 3.46 2.38.22.14.59.31.8.46 1.13.81 2.1 1.62 3.32 2.24 1.33.67 2.81 1.13 4.27 1.42 2.53.5 5.31 1.12 7.61 1.19 7.7.22 15.43 1.43 23.25-.72 5.01-1.38 10.56-.72 15.89-1.42 4.75-.62 9.82-1.24 14.86.8 3.66 1.48 8 1.28 12.03 1.84.2.03.39.09.57.19 1.34.73 2.59 1.66 4 2.23 1.78.72 3.67 1.17 5.5 1.76.15.05.21.31.35.44.75.71 1.4 1.63 2.28 2.07 1.37.67 2.9 1 4.36 1.49.13.04.21.21.34.3 1.19.85 2.38 1.69 3.58 2.52.21.15.63.17.68.33.83 2.47 3.44 2.45 5.13 3.7.92.67 2.05 1.05 3 1.69 1.17.79 2.16 1.87 3.39 2.53 1.82.99 3.71 1.98 5.68 2.52 2.74.75 5.61 1.57 8.4 1.5 4.26-.09 8.5-.91 12.75-1.44.2-.03.38-.24.57-.36 1.2-.7 2.36-1.5 3.63-2.05 1.51-.66 3.11-1.1 4.67-1.64.06-.02.1-.11.16-.16 1.08-.84 2.06-1.95 3.28-2.45 1.8-.73 3.79-1 5.69-1.49.16-.04.31-.11.45-.2 1.25-.81 2.43-1.75 3.75-2.42 1.24-.63 2.59-1.1 3.95-1.4 2.68-.6 5.4-1.51 8.08-1.44 5.67.16 11.32.87 16.97 1.36.1.01.2.03.3.08 1.87.85 3.66 1.93 5.6 2.57 2.26.74 4.63 1.14 6.95 1.69.03.01.05.02.08.03 1.73.8 3.41 1.76 5.21 2.37 1.79.62 3.72.7 5.58 1.23 4.55 1.3 9.49 1.25 14.27 1.71.46.04.99.01 1.4-.18 1.77-.81 3.47-1.76 5.25-2.54 1.47-.64 3.02-1.11 4.53-1.67.1-.04.15-.19.24-.25 1.3-.76 2.6-1.5 3.9-2.26.57-.34 1.12-.72 1.68-1.07.92-.58 1.77-1.32 2.77-1.71 1.74-.68 3.56-1.17 5.35-1.71 2.76-.82 5.51-2.1 8.32-2.26 2.55-.15 5.24-.96 7.94.99 1.74 1.25 4.61 1.34 6.95 1.27 5.47-.16 11.43 2.1 16.13-2.48 1.24-1.21 1.97-3.04 2.65-4.69.45-1.11.39-2.43.58-3.65.19-1.23.77-2.57.46-3.66-.23-.81-1.55-1.67-2.5-1.84-3.93-.68-7.91-1.1-11.87-1.63-.17-.02-.33-.18-.48-.28-1.25-.81-2.43-1.75-3.76-2.4-1.33-.65-2.86-.91-4.2-1.56-.74-.36-1.26-1.16-1.87-1.78-.73-.75-1.39-1.59-2.19-2.26-1.08-.91-2.26-1.71-3.42-2.53-.81-.57-1.65-1.09-2.49-1.62-.92-.58-1.9-1.09-2.78-1.73-1.64-1.2-3.12-2.66-4.86-3.67-3.02-1.76-6.42-1.73-9.8-1.42-.15.01-.31.05-.45.1-2.26.81-4.5 2.42-6.76 2.45-3.22.04-6.62 1.34-9.81-1.01-.61-.45-1.35-.73-2.13-.94-2.08-.55-5.23-1.98-6.95-3.27-.18-.13-.35-.27-.53-.4-.69-.53-1.42-1.03-2.02-1.65-.68-.7-1.15-1.61-1.86-2.28-1.18-1.13-2.38-2.27-3.74-3.17-1.43-.95-3.06-2.28-4.59-2.27-3.15.03-6.34.67-9.43 1.4-1.45.34-2.74 1.44-4.05 2.27-.76.47-1.41 1.11-2.14 1.63-1.58 1.12-3.18 2.22-4.78 3.33-1.13.78-2.26 1.56-3.41 2.32-.21.14-.6.11-.73.28-1.41 1.81-2.56 3.82-5.24 4.13-.98.11-1.93.78-2.82 1.32-1.27.77-2.51 2.4-3.71 2.35-3.61-.15-7.38 1.66-10.87-.93-1.71-1.27-3.86-1.93-5.76-2.97-.44-.24-.63-.92-.96-1.38-.86-1.19-1.9-2.28-2.56-3.56-.74-1.43-1.14-3.03-1.69-4.56-.8-2.27-2.32-4.57-2.24-6.81.15-4.45-1.15-8.88.91-13.46 1.45-3.22 1-7.27 1.57-10.92.32-2.06.99-4.06 1.5-6.09.01-.04.05-.06.07-.1.88-1.69 1.92-3.31 2.58-5.08.67-1.81.94-3.76 1.41-5.64.06-.24.28-.44.42-.66.78-1.2 1.87-2.3 2.27-3.61.68-2.25-1.18-2.92-2.84-3.44-.78-.24-1.73-.03-2.44-.37-1.29-.62-2.37-1.72-3.69-2.24-2.61-1.02-4.91.45-7.2 1.41-.67.28-1.12 1.02-1.72 1.49-1.15.9-2.34 1.75-3.51 2.62-.24.17-.5.31-.73.49-1.59 1.19-3.17 2.39-4.75 3.57-.24.18-.55.25-.76.45-.81.76-1.72 1.46-2.34 2.36-.77 1.11-1.51 2.34-1.8 3.63-.13.57.93 1.37 1.37 2.11.51.85.75 1.94 1.43 2.6 1.54 1.5 2.75 3.13 2.53 5.35-.08.83-1 1.55-1.19 2.4-.54 2.4-1.98 3.4-4.36 3.36-2.32-.03-4.72.33-6.57-1.55-1.13-1.15-2.14-2.42-3.22-3.63-.52-.57-.98-1.41-1.63-1.59-.7-.2-2.07-.02-2.28.42-.97 2 .75 3.33 1.62 4.85.32.56.87.98 1.25 1.52.86 1.22 2.19 2.39 2.37 3.71.22 1.61 1.07 3.63-1.13 5.04-1.31.84-2.02 2.59-4.05 2.26-1.09-.17-2.23-.06-3.35-.12-.26-.02-.56-.19-.75-.38-.69-.67-1.26-1.85-2.04-2-2.35-.44-3.69-1.56-3.9-3.98a.515.515 0 0 0-.69-.43c-.96.38-1.9.8-2.82 1.28-.68.36-1.27.87-1.95 1.22-1.15.61-2.32 1.6-3.52 1.65-2.88.13-6.04 1.04-8.46-1.46-.76-.79-1.75-1.89-1.71-2.8.08-1.86.66-3.74 1.31-5.51.36-.96 1.27-1.73 1.98-2.54.65-.74 1.39-1.39 2.06-2.11.67-.72 1.24-1.53 1.95-2.2.72-.66 1.57-1.18 2.35-1.78.68-.53 1.3-1.12 1.95-1.67 1.16-.99 2.34-1.95 3.44-3.01.96-.93 2.04-1.72 2.99-2.66 1.08-1.06 1.92-2.73 3.19-3.15 1.78-.58 2.96-1.45 3.92-2.94.36-.56 1.02-.99 1.62-1.34 1.12-.65 2.53-.98 3.4-1.86 1.64-1.64 2.71-3.84 5.39-4.22.69-.1 1.26-1.01 1.89-1.53.94-.79 1.88-1.59 2.86-2.33.26-.2.78-.09.98-.3 1.54-1.63 2.9-3.47 4.58-4.93 1.49-1.3 3.46-2.05 4.95-3.35.88-.77 1.75-2.15 1.73-3.23-.07-2.41-.95-4.79-1.05-7.2-.19-4.43-.05-8.88-.05-13.33 0-.27.05-.53.13-.79.81-2.29 1.61-4.59 2.47-6.86.52-1.37 1.13-2.71 1.71-4.06.04-.08.21-.1.3-.17.74-.64 1.53-1.23 2.2-1.94 1.53-1.62 2.83-3.52 4.56-4.89 1.61-1.28 3.59-2.2 5.53-2.96 1.86-.72 3.92-1.55 5.81-1.39 4.06.33 8.22-1.41 12.25 1.02 1.87 1.13 4.43 1.09 6.65 1.67 1.76.46 3.47 1.07 5.2 1.61.07.02.1.12.17.16 1.15.8 2.33 1.56 3.44 2.4.77.58 1.49 1.24 2.18 1.93.71.71 1.3 1.55 2.04 2.23 1.13 1.02 2.46 1.84 3.49 2.95 1.09 1.17 1.73 2.84 2.95 3.8 1.08.85 2.69 1.38 4.08 1.39 1.63.02 3.29-1.05 4.91-.99 4.04.16 8.08.59 12.09 1.14 1.7.23 3.32 1.02 4.98 1.56.06.02.09.13.16.17 1.38.84 2.77 1.65 4.13 2.52.97.62 2.43 1.13 2.74 2.01 1.23 3.51-.88 7.38-4.77 7.41-1.53.01-3.07-.81-4.6-1.26-.06-.02-.08-.14-.15-.18-1.6-.85-3.23-2.46-4.79-2.4-4.3.19-8.78-1.63-12.95 1.14-1.87 1.24-4.2 1.77-6.26 2.74-.62.29-1.01 1.05-1.62 1.42-1.11.68-2.42 1.07-3.42 1.87-1.48 1.18-2.8 2.58-4.12 3.96-.63.66-1.14 1.44-1.63 2.21-.66 1.04-1.21 2.14-1.87 3.18-.77 1.21-1.59 2.39-2.41 3.57-.14.21-.37.36-.54.55-.71.84-1.57 1.6-2.09 2.54-.72 1.33-1.12 2.83-1.78 4.19-.32.66-.97 1.15-1.42 1.76-.84 1.11-1.72 2.2-2.43 3.39-.66 1.1-1.03 2.38-1.68 3.49-.68 1.16-1.78 2.11-2.28 3.32-.26.62-.47 1.27-.67 1.91-1.03 2.27-2.04 4.5-3.08 6.77-.22.33-.42.67-.61 1.03-.64 1.22-1.05 2.57-1.46 3.89-.47 1.56-.82 3.15-1.23 4.73-.46 1.76-.15 3.47-1.15 5.41-1.42 2.74-1.58 6.33-1.58 9.55.01 2.76-.6 5.46.85 8.48 1.09 2.29 1.83 5.06 3.07 7.44.44.84 1.7 1.63 2.67 1.75 2.44.29 4.94.39 7.08-1.35.86-.7 2.2-.95 2.83-1.78.99-1.29 1.71-2.59 3.6-2.75.7-.06 1.35-.89 2-1.39 1.13-.87 2.24-1.76 3.36-2.63.2-.16.44-.28.63-.46 1.18-1.13 2.22-2.49 3.58-3.34.71-.45 1.52-.75 2.34-1.02 1.4-.77 2.76-1.52 4.15-2.29.52-.42 1.06-.78 1.66-.97 1.95-.62 3.98-.55 6.08-1.33 3.41-1.27 6.98-.04 10.51.82l3.99 2.08c.93.81 1.86 1.62 2.82 2.4 1.77 1.44 3.6 2.82 5.42 4.21 1.37 1.05 2.68 2.21 4.16 3.07 1.68.97 3.48 2.16 5.3 2.3 2 .16 4.14.88 6.27-1.03 1.36-1.22 4.01-1.15 6.11-1.33l.08-.01c3.63-.29 9.36.57 12.73 1.93.5.2 1 .4 1.5.61 1.29.53 2.68.92 3.83 1.67 1.7 1.12 3.23 2.49 4.82 3.77.54.44 1 1 1.57 1.39 1.64 1.12 3.35 2.13 4.96 3.28 1.6 1.14 3.11 2.4 4.7 3.56.99.72 2.06 1.33 3.16 1.87 1.7.84 3.36 1.86 5.15 2.38 1.3.38 2.78.18 4.17.08.36-.02.99-.68.95-.97-.23-1.77.09-3.44-1.13-5.32-1.25-1.93.04-4.94-1.57-7.42-1.12-1.72.52-4.27-1.4-6.41-1.17-1.31-.92-3.87-1.37-5.86-.5-2.17.55-4.36-1.19-6.66-1.33-1.75.18-4.76-1.53-7.19-1.22-1.74-.1-4.35-1.3-6.79-1.5-3.05-1.23-6.96-1.78-10.49-.3-1.94-.8-3.85-1.08-5.79-.38-2.55.15-5.09-1.34-7.65-1.27-2.2.51-5.2-1.41-7.89-1.27-1.77 0-4.61-1.43-7.1-1.32-2.32-.93-5.59-1.41-8.43-.38-2.27-.01-4.44-1.14-6.88-1.5-3.26-1.27-7.33-1.77-11.06-.14-1.02-.03-2.12-.38-3.05-.69-1.81-1.79-3.47-2.43-5.29-.6-1.7-.82-3.52-1.22-5.29-.43-1.86-.29-3.66-1.18-5.66-1.48-3.33-1.28-7.4-1.79-11.15-.08-.62-.06-1.29-.29-1.86-.79-1.96-1.89-3.81-2.46-5.83-.7-2.51-.98-5.14-1.46-7.72-.03-.14-.16-.26-.24-.4-.81-1.42-1.83-2.76-2.37-4.27-.76-2.11-1.15-4.34-1.71-6.53-.02-.07-.08-.13-.11-.21-.79-1.81-1.62-3.61-2.37-5.44-.6-1.44-1.11-2.92-1.67-4.38-.01-.03-.05-.06-.08-.09-.83-1.1-1.8-2.11-2.46-3.31-1-1.82-1.73-3.78-2.65-5.65-.91-1.84-1.95-3.62-2.87-5.45-1.05-2.07-2.03-4.17-3.05-6.25-.46-.94-.72-2.1-1.44-2.76-1.29-1.18-2.73-2.15-2.7-4.16 0-.12-.25-.25-.39-.38-.75-.67-1.71-1.2-2.2-2.02-1.11-1.83-1.93-3.84-3-5.71-.42-.74-1.2-1.27-1.81-1.91-.67-.7-1.41-1.34-1.98-2.11-1.15-1.55-2.08-3.27-3.32-4.74-1.05-1.25-2.46-2.18-3.6-3.35-1.15-1.18-2.13-2.51-3.24-3.73-.83-.91-1.75-1.73-2.6-2.62-.49-.51-.83-1.19-1.37-1.63-1.23-.99-2.59-1.83-3.82-2.83-.68-.56-1.17-1.34-1.8-1.97-1.1-1.12-2.15-2.31-3.37-3.28-1.51-1.2-3.18-2.18-4.76-3.29-1.2-.84-2.34-1.76-3.54-2.61-1.15-.82-2.33-1.59-3.49-2.39-.76-.52-1.45-1.17-2.27-1.55-1.42-.66-3-1.02-4.38-1.75-2.13-1.14-4.05-2.7-6.23-3.71-1.81-.84-3.87-1.14-5.82-1.68-.15-.04-.32-.05-.46-.11-1.77-.79-3.52-1.66-5.32-2.35-1.66-.64-3.38-.01-5.28-1.21-2.29-1.45-5.61-1.48-8.51-1.68-3.17-.22-6.36-.11-10.31-.07-1.08.01-2.16.12-3.23.21-2.9.23-6.58-1.02-10.22.35-1.15.43-2.33.77-3.55.88-.82.07-1.71.2-3.21.66-.79.24-1.53.62-2.27.97-1.22.58-3 .54-4.44.89-2.29.54-4.6 1.02-6.86 1.67-1.22.35-2.37.99-3.54 1.51-.06.03-.07.15-.13.19-1.24.81-2.42 1.77-3.76 2.39-1.38.64-2.91.96-4.36 1.43-.1.03-.15.17-.24.24-1.17.84-2.3 1.73-3.51 2.48-1.06.66-2.29 1.07-3.33 1.76-1.83 1.22-3.59 2.54-5.34 3.87-.68.51-1.22 1.19-1.86 1.76-.81.73-1.61 1.48-2.47 2.15-1.46 1.15-3.03 2.18-4.41 3.41-1.2 1.07-2.15 2.42-3.3 3.55-.25.24-.51.48-.77.72-2.11 1.88-4.14 3.84-5.99 5.97-.11.12-.21.25-.32.37-.71.83-1.45 1.64-2.07 2.54-.68.98-1.03 2.32-1.91 3-1.76 1.36-3.45 2.57-3.85 5.02-.13.77-1.18 1.38-1.77 2.1-.83 1-1.63 2.01-2.41 3.05-.19.25-.16.67-.33.94-.76 1.18-1.55 2.34-2.33 3.5-.16.23-.35.44-.54.64-.72.78-1.62 1.46-2.11 2.37-.74 1.36-1.19 2.87-1.77 4.32-.03.07-.12.1-.17.17-1.21 1.72-2.57 3.36-3.59 5.19-.78 1.39-1.13 3.01-1.68 4.52-.04.1-.17.16-.24.25-.82 1.1-1.88 2.1-2.38 3.33-.71 1.76-.99 3.68-1.46 5.54-.05.18-.17.46-.28.61-.81 1.17-1.85 2.26-2.37 3.55-.76 1.9-1.12 3.96-1.66 5.95-.01.04-.03.08-.04.12-.81 1.79-1.84 3.5-2.44 5.36-.73 2.28-1.12 4.66-1.67 6.99-.03.11-.14.19-.19.29-.83 1.71-1.91 3.35-2.41 5.16-.75 2.74-1.11 5.59-1.63 8.39-.02.09-.06.24-.09.32-.79 2.24-1.61 4.46-2.36 6.71-.71 2.14.18 4.31-1.2 6.71-1.67 2.9-1.3 7.02-1.86 10.49-.22 1.34-.13 2.7-.04 4.05.03.47-.06.95-.3 1.35-.68 1.16-1.65 2.19-2.11 3.42-.66 1.81-.5 3.76-1.16 5.72-1.05 3.16-1.49 6.51-3.07 9.63-1.03 2.05-.95 4.64-1.48 6.97-.45 2-1.05 3.96-1.6 5.93-.03.1-.19.15-.24.25-.8 1.43-1.8 2.79-2.33 4.31-.73 2.13-1.11 4.38-1.63 6.57-.01.04-.04.07-.05.11-.81 1.69-1.74 3.33-2.38 5.07-.7 1.89-1.11 3.88-1.67 5.82-.05.17-.24.3-.35.45-.8 1.17-1.77 2.26-2.36 3.52-.65 1.37-.95 2.91-1.41 4.37-.03.1-.17.16-.23.26-.82 1.19-1.8 2.31-2.42 3.6-.71 1.47-1.09 3.08-1.62 4.63-.02.07-.11.11-.15.18-.79 1.42-1.77 2.77-2.31 4.28-.14.38-.26.77-.38 1.15l-3.53 8.65c-.1.2-.19.4-.26.61-.67 1.8-.07 3.76-1.38 5.71-1.19 1.78-1.37 4.52-1.28 6.81.16 4.19-1.57 8.57 1.05 12.55m181.48-110.53c-2.11.19-3.61.05-4.91.5-1.48.51-2.82 1.47-4.13 2.36-1.02.7-2.02 1.49-2.82 2.43-.74.87-1.22 1.96-1.77 2.98-.8 1.46-2.09 2.9-2.21 4.43-.15 2.02-1.14 4.3 1.06 6.25 1.01.9 1.05 2.89 1.56 4.37.05.15.28.23.42.35.76.63 1.51 1.27 2.28 1.89 1.08.87 2.17 1.74 3.27 2.59.2.16.5.2.69.38.71.65 1.3 1.55 2.13 1.94.63.3 1.7.21 2.3-.15.77-.46 1.25-1.37 1.88-2.08.48-.54.96-1.07 1.47-1.58.7-.72 1.98-1.37 2.04-2.13.22-2.48 2.55-3.12 3.69-4.74.58-.83 1.13-1.69 1.8-2.44.99-1.12 2.06-2.17 3.16-3.19.78-.73 2.02-1.2 2.41-2.07 1.25-2.83-.25-5.53-3.14-6.52-.82-.28-1.44-1.17-2.12-1.82-.74-.71-1.31-1.87-2.18-2.14-2.44-.78-4.99-1.19-6.88-1.61z"/></g></svg>