<svg width="172" height="78" viewBox="0 0 172 78" fill="none" xmlns="http://www.w3.org/2000/svg">
<path d="M23.9844 26.7004C23.9844 26.7004 36.6615 33.6003 36.6615 39.1242C36.6615 44.6481 33.3382 43.6397 30.3229 40.5052C27.3126 37.3707 30.8892 32.726 23.9844 26.7004Z" fill="#000000"></path>
<path d="M39.3839 3.87466C39.3839 3.87466 38.2364 9.99465 32.9658 9.67673C32.9658 9.67673 39.21 10.6802 39.3342 16.2637C39.4584 10.6802 45.7969 9.61215 45.7969 9.61215C40.5264 9.93007 39.3839 3.87466 39.3839 3.87466Z" fill="#000000"></path>
<path d="M165.409 54.5533C165.409 54.5533 164.262 60.6733 158.991 60.3554C158.991 60.3554 165.235 61.3588 165.36 66.9423C165.484 61.3588 171.822 60.2908 171.822 60.2908C166.557 60.6087 165.409 54.5533 165.409 54.5533Z" fill="#000000"></path>
<path d="M62.8447 15.439C62.8447 15.439 71.3392 14.7237 73.2219 10.3672C75.1046 6.01068 71.6571 2.07144 68.8207 6.94954C65.9842 11.8276 69.1336 12.7715 62.8447 15.439Z" fill="#000000"></path>
<path d="M82.4375 18.1712V35.1353V45.572V53.8727C87.7726 53.3064 89.248 65.1689 89.248 65.1689V45.875V45.5869V35.5277V30.0286C89.859 27.1425 92.8544 27.6442 92.8544 27.6442C89.9087 26.9538 82.4375 18.1712 82.4375 18.1712Z" fill="#000000"></path>
<path d="M120.225 23.4516C127.294 18.812 127.537 9.14022 127.503 6.99425H127.522V6.56207H127.493H118.596H114.627V6.99425H118.119C118.556 6.99425 118.948 7.26249 119.112 7.66983C119.763 9.26937 120.016 11.013 119.823 12.7417C118.447 24.9568 110.404 25.9503 110.404 25.9503C113.931 26.0149 116.728 25.3294 118.953 24.1868V35.5525V39.919V43.3019C124.289 42.7356 125.764 47.9216 125.764 47.9216V39.9239V35.5575V33.8685C126.375 30.9824 129.37 31.4841 129.37 31.4841C127.175 30.9625 122.485 25.9751 120.225 23.4516Z" fill="#000000"></path>
<path d="M137.884 6.4826C137.884 6.4826 137.035 17.4459 145.887 15.5185C147.929 14.9026 148.743 14.063 146.299 12.0959C145.187 11.2017 143.845 10.6752 142.445 10.4119C141.431 10.2182 140.09 9.50286 137.884 6.4826Z" fill="#000000"></path>
<path d="M161.167 18.7623C160.864 18.2556 160.273 17.4707 159.115 16.4623C157.764 15.285 155.524 16.6461 153.979 17.888H129.459C128.977 17.888 128.585 18.2805 128.585 18.7623V19.5174V19.7657H161.465V19.428C161.47 19.428 161.42 19.1945 161.167 18.7623Z" fill="#000000"></path>
<path d="M163.293 47.7826C162.97 47.2759 162.339 46.491 161.107 45.4826C159.572 44.2259 156.959 45.8602 155.32 47.1567H128.59V47.7826V48.786H157.565H163.616V48.4433C163.616 48.4482 163.561 48.2148 163.293 47.7826Z" fill="#000000"></path>
<path d="M124.363 57.9561C124.363 57.9561 129.067 70.8617 116.912 71.0107C112.059 70.0272 116.162 66.3065 119.713 64.1059C123.26 61.9102 124.363 57.9561 124.363 57.9561Z" fill="#000000"></path>
<path d="M129.515 54.747C129.515 54.747 137.796 55.1295 139.807 60.8372C141.814 66.5449 138.491 68.7008 134.035 64.7069C129.579 60.713 137.105 58.6316 129.515 54.747Z" fill="#000000"></path>
<path d="M144.407 54.747C144.407 54.747 152.688 55.1295 154.7 60.8372C156.707 66.5449 153.384 68.7008 148.928 64.7069C144.472 60.713 151.998 58.6316 144.407 54.747Z" fill="#000000"></path>
<path d="M147.79 33.5804V33.5208V31.8318C148.272 28.9457 150.651 29.4474 150.651 29.4474C148.317 28.7569 142.395 19.9744 142.395 19.9744V26.6706H135.903C135.535 26.6706 135.242 26.9686 135.242 27.3313V28.2999H142.395V33.5208V33.5804H136.171C135.764 33.5804 135.431 33.9132 135.431 34.3206V35.2147H142.395V37.8922V41.2751C146.623 40.7088 147.79 45.8949 147.79 45.8949V37.8972V35.2197H153.051V34.9067V33.8934V33.5804H147.79Z" fill="#000000"></path>
<path d="M70.7285 51.9205V18.36H70.2318V18.2407H57.8477V11.7382C58.0266 7.00917 66.2081 7.65992 66.2081 7.65992C57.6441 6.78066 55.0659 0 55.0659 0C55.0659 0 52.4878 6.78066 43.9238 7.65992C43.9238 7.65992 52.1053 7.00917 52.2841 11.7382V18.2407H39.3834V18.2556C37.0636 18.1911 34.7338 18.5487 32.4538 18.9759C30.2482 19.4379 28.0674 20.0489 25.9215 20.7692V11.3359C26.4729 8.57891 29.1951 9.05579 29.1951 9.05579C26.5176 8.39511 19.7369 0 19.7369 0V23.1685C17.9536 23.9484 16.1851 24.783 14.4465 25.6672C13.7908 23.5908 13.1847 22.1899 13.1847 22.1899C13.1847 23.6951 13.1301 25.1009 13.0308 26.4173C8.87294 28.6676 1.79422 32.4031 0.472859 37.013C1.84389 33.3768 6.06132 31.1315 9.02693 29.3282C10.3284 28.6129 11.6398 27.9125 12.9562 27.227C12.6234 30.7688 11.9429 33.6053 11.0537 35.8059C9.87638 38.7318 7.34791 40.9324 4.24817 41.5036C-1.64827 42.5915 0.989481 35.9947 0.989481 35.9947C-0.312009 38.2251 -0.123243 39.8196 0.388411 40.8579C0.835488 41.757 1.7048 42.3829 2.68837 42.6064C18.649 46.3023 16.7316 33.347 14.6601 26.3626C16.3391 25.5231 18.0281 24.7184 19.7369 23.9583V44.9412V52.5365V63.4005C24.5802 62.859 25.9215 74.1949 25.9215 74.1949V52.5315V44.9362V21.4845C28.9914 20.3917 32.111 19.5025 35.2852 18.8815C36.6414 18.6282 38.0074 18.4295 39.3834 18.3649C39.3834 18.7276 39.3834 19.1001 39.3884 19.4727V19.9645C39.4033 26.3875 39.4132 34.3206 39.4132 41.9954C39.4132 59.3122 33.9688 60.9465 33.9688 60.9465C40.069 60.0126 42.9005 50.783 44.033 45.4727C44.4503 43.5105 44.6888 41.5185 44.7484 39.5117L44.7335 38.2996V38.1257V19.9595H63.8634C63.8386 23.7994 63.8088 28.7073 63.7789 34.1567H50.4958C50.0984 34.1567 49.7755 34.4796 49.7755 34.877V35.791H63.769C63.7541 38.1704 63.7442 40.6393 63.7293 43.1578H50.5107C50.1034 43.1578 49.7705 43.4906 49.7705 43.898V44.7872H63.7193C63.7044 48.1502 63.6895 51.5877 63.6796 55.0054C63.6051 76.3756 52.0804 78 52.0804 78C71.4289 75.6106 70.7285 51.9205 70.7285 51.9205Z" fill="#000000"></path>
<path d="M121.959 54.0317C119.053 56.0982 115.585 56.9725 112.187 57.9312C110.985 58.3137 109.773 58.736 108.576 59.198L109.222 46.9034V31.057C109.833 28.1708 112.828 28.6726 112.828 28.6726C109.882 27.9821 102.411 19.1995 102.411 19.1995V27.3015H94.5031V27.9672H97.3345C97.3345 27.9672 102.143 27.9572 102.411 30.4261V34.5144H95.3227C94.8706 34.5144 94.5031 34.882 94.5031 35.334V36.1487H102.411V42.0501H95.2979C94.8607 42.0501 94.5031 42.4028 94.5031 42.8449V43.6844H102.411V49.9882C101.88 54.9309 92.2627 54.906 92.2627 54.906H102.411C102.521 54.8961 102.63 54.8911 102.739 54.8911C102.754 54.8911 102.764 54.8961 102.779 54.8961C102.873 54.9011 102.963 54.906 103.057 54.9209C103.067 54.9209 103.077 54.9259 103.082 54.9259C104.503 55.1594 105.511 56.6695 106.231 58.6515C106.231 58.6515 106.231 58.6515 106.236 58.6515C106.39 59.0787 106.534 59.5308 106.664 59.9977C102.918 61.6519 99.4308 63.8724 96.9471 67.1857C94.811 70.0321 94.8408 74.0161 99.0285 74.637C100.861 74.9698 102.839 74.4284 104.244 73.2362C105.437 72.2476 106.351 70.9958 107.041 69.6248C107.19 69.3665 107.379 69.0187 107.578 68.6064C107.96 67.7918 108.184 66.9076 108.228 66.0084L108.531 60.261C109.843 59.7245 111.164 59.2476 112.471 58.8006C115.883 57.7822 119.44 56.7291 122.286 54.459C124.119 52.9886 125.843 50.9618 125.918 48.5228C125.605 50.8823 123.831 52.7054 121.959 54.0317ZM107.722 66.078V66.0979C107.826 67.1212 107.622 68.1494 107.14 69.0585C106.351 70.5438 105.317 71.9049 103.976 72.8984C102.168 74.2645 99.565 74.5575 97.5929 73.415C95.4817 72.1086 96.4205 69.3466 97.6773 67.7024C100.052 64.6573 103.365 62.556 106.902 60.9515C107.304 62.6703 107.558 64.4983 107.722 66.078Z" fill="#000000"></path>
<defs fill="#000000">
<linearGradient id="paint0_linear_290_64993" x1="165.407" y1="54.5533" x2="165.407" y2="66.9423" gradientUnits="userSpaceOnUse" fill="#000000">
<stop offset="0.334494" stop-color="#343434" fill="#000000"></stop>
<stop offset="1" stop-color="#191514" fill="#000000"></stop>
</linearGradient>
<linearGradient id="paint1_linear_290_64993" x1="87.6459" y1="18.1712" x2="87.6459" y2="65.1689" gradientUnits="userSpaceOnUse" fill="#000000">
<stop offset="0.547389" stop-color="#B8B6B6" fill="#000000"></stop>
<stop offset="1" stop-color="#1F1F1F" fill="#000000"></stop>
</linearGradient>
<linearGradient id="paint2_linear_290_64993" x1="128.59" y1="46.9088" x2="163.616" y2="46.9088" gradientUnits="userSpaceOnUse" fill="#000000">
<stop stop-color="#B8B6B6" fill="#000000"></stop>
<stop offset="1" stop-color="#525151" fill="#000000"></stop>
</linearGradient>
<linearGradient id="paint3_linear_290_64993" x1="119.975" y1="57.9561" x2="119.975" y2="71.0107" gradientUnits="userSpaceOnUse" fill="#000000">
<stop stop-color="#7A7A7A" fill="#000000"></stop>
<stop offset="0.867134" stop-color="#161616" fill="#000000"></stop>
</linearGradient>
<linearGradient id="paint4_linear_290_64993" x1="134.96" y1="54.747" x2="134.96" y2="66.7518" gradientUnits="userSpaceOnUse" fill="#000000">
<stop stop-color="#848484" fill="#000000"></stop>
<stop offset="0.774511" stop-color="#1E1E1E" fill="#000000"></stop>
</linearGradient>
<linearGradient id="paint5_linear_290_64993" x1="149.853" y1="54.747" x2="149.648" y2="64.1853" gradientUnits="userSpaceOnUse" fill="#000000">
<stop offset="0.0794835" stop-color="#7A7A7A" fill="#000000"></stop>
<stop offset="1" stop-color="#1E1C1C" fill="#000000"></stop>
</linearGradient>
<linearGradient id="paint6_linear_290_64993" x1="35.3946" y1="38.851" x2="35.3658" y2="78" gradientUnits="userSpaceOnUse" fill="#000000">
<stop stop-color="#A6A7A7" fill="#000000"></stop>
<stop offset="0.645212" stop-color="#222222" fill="#000000"></stop>
</linearGradient>
<linearGradient id="paint7_linear_290_64993" x1="109.09" y1="19.1995" x2="109.09" y2="74.7336" gradientUnits="userSpaceOnUse" fill="#000000">
<stop stop-color="#B8B6B6" fill="#000000"></stop>
<stop offset="1" stop-color="#161616" fill="#000000"></stop>
</linearGradient>
</defs>
</svg>